<?xml version="1.0" encoding="UTF-8"?>
<svg id="Camada_1" xmlns="http://www.w3.org/2000/svg" version="1.1" viewBox="0 0 1298.5 551.5"><metadata><c2pa:manifest xmlns:c2pa="http://c2pa.org/manifest">AAA0RWp1bWIAAAAeanVtZGMycGEAEQAQgAAAqgA4m3EDYzJwYQAAADQfanVtYgAAAEdqdW1kYzJtYQARABCAAACqADibcQN1cm46dXVpZDpiMDQwYzkxZC1hYWQ5LTQ4NWUtYTcyYS0wMGFiMDllN2JiNGYAAAABtGp1bWIAAAApanVtZGMyYXMAEQAQgAAAqgA4m3EDYzJwYS5hc3NlcnRpb25zAAAAANdqdW1iAAAAJmp1bWRjYm9yABEAEIAAAKoAOJtxA2MycGEuYWN0aW9ucwAAAACpY2JvcqFnYWN0aW9uc4GjZmFjdGlvbmtjMnBhLmVkaXRlZG1zb2Z0d2FyZUFnZW50bUFkb2JlIEZpcmVmbHlxZGlnaXRhbFNvdXJjZVR5cGV4U2h0dHA6Ly9jdi5pcHRjLm9yZy9uZXdzY29kZXMvZGlnaXRhbHNvdXJjZXR5cGUvY29tcG9zaXRlV2l0aFRyYWluZWRBbGdvcml0aG1pY01lZGlhAAAArGp1bWIAAAAoanVtZGNib3IAEQAQgAAAqgA4m3EDYzJwYS5oYXNoLmRhdGEAAAAAfGNib3KlamV4Y2x1c2lvbnOBomVzdGFydBjFZmxlbmd0aBlFtGRuYW1lbmp1bWJmIG1hbmlmZXN0Y2FsZ2ZzaGEyNTZkaGFzaFggI/r9oE2qvMHnsF0JOMV54dMEnJwjgYDop6dj8w2OD1tjcGFkSQAAAAAAAAAAAAAAAgxqdW1iAAAAJGp1bWRjMmNsABEAEIAAAKoAOJtxA2MycGEuY2xhaW0AAAAB4GNib3KoaGRjOnRpdGxlb0dlbmVyYXRlZCBJbWFnZWlkYzpmb3JtYXRtaW1hZ2Uvc3ZnK3htbGppbnN0YW5jZUlEeCx4bXA6aWlkOjBhOTZkY2NlLWQ2ZjctNGNjMy1iNDQ5LTQzNmM1NWIyMzA4Zm9jbGFpbV9nZW5lcmF0b3J4N0Fkb2JlX0lsbHVzdHJhdG9yLzMwLjEgYWRvYmVfYzJwYS8wLjEyLjIgYzJwYS1ycy8wLjMyLjV0Y2xhaW1fZ2VuZXJhdG9yX2luZm+Bv2RuYW1lcUFkb2JlIElsbHVzdHJhdG9yZ3ZlcnNpb25kMzAuMf9pc2lnbmF0dXJleBlzZWxmI2p1bWJmPWMycGEuc2lnbmF0dXJlamFzc2VydGlvbnOComN1cmx4J3NlbGYjanVtYmY9YzJwYS5hc3NlcnRpb25zL2MycGEuYWN0aW9uc2RoYXNoWCBKacG9/6jeQTB4viTtzPgxOsHRZJU0VnGgDWsGszfUr6JjdXJseClzZWxmI2p1bWJmPWMycGEuYXNzZXJ0aW9ucy9jMnBhLmhhc2guZGF0YWRoYXNoWCDnnG3VazJZAl5xyzhuM77MYT44xuRUlrgyoyqVpD2Q0mNhbGdmc2hhMjU2AAAwEGp1bWIAAAAoanVtZGMyY3MAEQAQgAAAqgA4m3EDYzJwYS5zaWduYXR1cmUAAAAv4GNib3LShFkNFKIBOCQYIYJZBqAwggacMIIEhKADAgECAhRJcyBrPnXfyWyvf1b/LSqtsEAH3TANBgkqhkiG9w0BAQsFADB1MQswCQYDVQQGEwJVUzEjMCEGA1UEChMaQWRvYmUgU3lzdGVtcyBJbmNvcnBvcmF0ZWQxHTAbBgNVBAsTFEFkb2JlIFRydXN0IFNlcnZpY2VzMSIwIAYDVQQDExlBZG9iZSBQcm9kdWN0IFNlcnZpY2VzIEc0MB4XDTI1MTAwNzE2MzkwN1oXDTI2MTAwNzE2MzkwN1owgasxEzARBgNVBAMMCkFkb2JlIEMyUEExKDAmBgNVBAsMH0NvbnRlbnQgQXV0aGVudGljaXR5IEluaXRpYXRpdmUxEzARBgNVBAoMCkFkb2JlIEluYy4xETAPBgNVBAcMCFNhbiBKb3NlMRMwEQYDVQQIDApDYWxpZm9ybmlhMQswCQYDVQQGEwJVUzEgMB4GCSqGSIb3DQEJARYRY2FpLW9wc0BhZG9iZS5jb20wggEiMA0GCSqGSIb3DQEBAQUAA4IBDwAwggEKAoIBAQDDEMGB0H09cukxc/Dmg2BiQVYM8/VpJ+2H1Nk8g0605CWGnW/iH6EzFlYWORndElG6hIGuxJJgFoR+IMwqKyL+w7G4UcoFX/+XWu/dKuOuLEA1ciWqMZ0hjJ1oxoVr/mi8XP+bj5JTPRxxjOrD69IDO5HJIaemCbwaaP5IQlwv8YgfOpT1tTLc2yLNjahjbzKPfatuQ6p4ANIznU6ogkqWgQEUV7HMy6fOlT4rawuqF6hHwUkxpHR8Zdr+CpHOGSIEWHBSEs9L2zr5MKfPT1RkyVdt0b+IUqPdQ8VQOOqHTC0WBzPbgOtSVpZ6KW0oei7KYEe6KvO+Y4bRW1I96nE5AgMBAAGjggHrMIIB5zAMBgNVHRMBAf8EAjAAMB0GA1UdDgQWBBRY9QN+0GYM4Y4OVqGXQknSuyfC/jAfBgNVHSMEGDAWgBTQrUKK8HoUByXGl8BDqCOF6LUtIzAOBgNVHQ8BAf8EBAMCB4AwKgYDVR0lBCMwIQYJKoZIhvcvAQEMBgorBgEEAYPoXgIBBggrBgEFBQcDBDCBgAYIKwYBBQUHAQEEdDByMCgGCCsGAQUFBzABhhxodHRwOi8vb2NzcC5vbmUuZGlnaWNlcnQuY29tMEYGCCsGAQUFBzAChjpodHRwOi8vY2FjZXJ0cy5vbmUuZGlnaWNlcnQuY29tL0Fkb2JlUHJvZHVjdFNlcnZpY2VzRzQuY3J0MEcGA1UdHwRAMD4wPKA6oDiGNmh0dHA6Ly9jcmwub25lLmRpZ2ljZXJ0LmNvbS9BZG9iZVByb2R1Y3RTZXJ2aWNlc0c0LmNybDCBjgYDVR0gBIGGMIGDMIGABgkqhkiG9y8BAgMwczBxBggrBgEFBQcCAjBlDGNZb3UgYXJlIG5vdCBwZXJtaXR0ZWQgdG8gdXNlIHRoaXMgTGljZW5zZSBDZXJ0aWZpY2F0ZSBleGNlcHQgYXMgcGVybWl0dGVkIGJ5IHRoZSBsaWNlbnNlIGFncmVlbWVudC4wDQYJKoZIhvcNAQELBQADggIBAJs7c8VwrVF+V6FDXrEeoTUZzzqRJGAXoQ7AiV6daRHHZVJPY2NO9OU6dahtUvF/2AUgw216awWggF82Zz5Hu34Y0Mz6FJ+y0smSoWoCVA61OJo5qSDpzS5tJVaqCx7+mI9rXmT+qsuki7hUF7cGbK05JJX4cU48qx3tw7T2wl4Mxq2TcriMcx79qdcRJReVo362iW9eDqoBDxcTVxJvrlAUGJrBQx6PqNBuQ1mneOeis4GpIl87EhDDv39acUxh/FEf+UjauxjjdimGpdwFeJ+MlDSPEUyokY2ubb/I4MvoEZW2uOf3uSh9lbZwoXPmsNJPOVwURwpQAHWJbt555NIqXNGRX46TaJvziVMWA1uL1QGdPcotLoSRksQil0DaHhK56fWnAeNaZmzFYDeH/f06hyw56Ass2+l1VEuW1/bqPvahpAd9PRDKHOvMNbjwUk3eiUmqUIEKTQbnCnc7kqkZ3I+r2EAaNMmu+nGycJdKqjplnO8mV+QmqQBrpd/3YsrrLCudTPLxoERASfIEXvqOg8zeBNYyclU8I+XUH0XLD63KpiC00yAnK+W0hyWvHirsMuW4ytv3YGeg3qdrD5t3Pkg3+ipHUoTNiuEPbiil2S1j0CyvdHcoUOB0++/+v9GTi921ieTIB1zzPGfKGdQdykAf0UOysArVG+Brix6yWQZnMIIGYzCCBEugAwIBAgIQDuG63614rm8mvVElmAeILzANBgkqhkiG9w0BAQsFADBsMQswCQYDVQQGEwJVUzEjMCEGA1UEChMaQWRvYmUgU3lzdGVtcyBJbmNvcnBvcmF0ZWQxHTAbBgNVBAsTFEFkb2JlIFRydXN0IFNlcnZpY2VzMRkwFwYDVQQDExBBZG9iZSBSb290IENBIEcyMB4XDTI0MTEyMDAwMDAwMFoXDTQ0MTExOTIzNTk1OVowdTELMAkGA1UEBhMCVVMxIzAhBgNVBAoTGkFkb2JlIFN5c3RlbXMgSW5jb3Jwb3JhdGVkMR0wGwYDVQQLExRBZG9iZSBUcnVzdCBTZXJ2aWNlczEiMCAGA1UEAxMZQWRvYmUgUHJvZHVjdCBTZXJ2aWNlcyBHNDCCAiIwDQYJKoZIhvcNAQEBBQADggIPADCCAgoCggIBAKxF+ICxWEi8zumCmeLCiU7as6RDEkgB/y6nFXeceMAQC5afyCzXeWyQJolO7Cmi4Nw5vtexdD3zVCwG7cUAn3kHrNaLNtkGS+qp7jCG3QpvASkdR+ujOpyWiOB/iBlyWR+8djFpjv3N323tR4Don9zeZ23+Gctlmd+D5KvI1zKQdWYHKtMxFJaRKXwrebOE4it4lVoPfY843ve9N7cuJlFyj2Vu3NLrr1RgEF+jdUAAEynThGKVVoUKG1abmuvmLq34LluAcRIME0TE8EuGMNvomTLAYI2c4MSXxhrJqThlWRo+MsXi+J5S/VYsm+hvd4Flwus+qF4cA+1QEDNMiidxPTMji3OXNAhsnFWNFFBt0RzTNSFsOQObDKTo90YBvEfT6JGqjwkr7hEfj87gcNVXkzoJSHEADJ4kNnJu5rgef2LvYp4dG1EpQskGMrZaq55gDcbKVm4rnY5M93lHsG4DEusf/3YihdPOdc0sDgmDDJiuQR6Glb1fK4Se0J9vomXSSW1p3ICv3TUpeKd/GRb3ChDFpMfHDv0UjfCRh9eeRBXFGCWkB6DUvSMz6uAHFpDuXiRyemRjjszJTWwx0p6HByMdtvRQhhA/JfgEcLEtUcb5MToCr+DwIO4ZaoNaktJvJOQHtG0TQbArhIg+/35UrTbVPbZg7pxmQnjTgbPvAgMBAAGjgfcwgfQwEgYDVR0TAQH/BAgwBgEB/wIBADA1BgNVHR8ELjAsMCqgKKAmhiRodHRwOi8vY3JsLmFkb2JlLmNvbS9hZG9iZXJvb3RnMi5jcmwwDgYDVR0PAQH/BAQDAgGGMFcGA1UdIARQME4wTAYJKoZIhvcvAQIDMD8wPQYIKwYBBQUHAgEWMWh0dHBzOi8vd3d3LmFkb2JlLmNvbS9taXNjL3BraS9wcm9kX3N2Y2VfY3BzLmh0bWwwHQYDVR0OBBYEFNCtQorwehQHJcaXwEOoI4XotS0jMB8GA1UdIwQYMBaAFKYc4W1UJEyoj0hyv26pjNXk7DHUMA0GCSqGSIb3DQEBCwUAA4ICAQCRlqhDU07OWLmha2+YptYEMFr3tEE9vhBLlnlN7oeKRW9S8UVEGJUNwGnw4HMy2IIeGGc6pn2h+s6ZV6xJ8CdjgMT8Zp5OtaNNe5O/qH37EETsDxN79lUDolWAnO9GT1Ln1fT25z7n+ilSPQ5EMUzKsTRslqJMVQeTOYWNYX80+eFeoT8/0s6NZLsxodw4l+pBRdyvI5g2g/vgxTYPQjdjBeqIIPBZfW5PI6WJwesJW65tXaqd1GNmkkDPlO3ZcS8qj0TONxpCfrDsjTm+OpX9k2Yvyljuz/GLssmw9hpwwOa9gSIOhVrR1hSCoWkrHQ1KWeaedPREi0AdlQ0NXClPmf7AxCZN8e4fkNovduPXyTnI43nN8PFMsUmySUxb9RtyWOH87KuJjBVkgX2PbIRvCxnQ6RrzElMbzKfw/oDRs8Psq/mm3OqVxGE8JqEH7yl3mLa7OQEk6bAMjqEoORkxudGTf0beyV72Iu5MlklIZ9L3J7XLIObmURgVhJfzmBfubLwfRGm1aaScfeyCL/38T0jKtKqYklDi1A3VbWPBSMn8sCcS7cOrbRLQtm1Y6qES+zE5Lvt/HnsVAeB1caQuxP+Fblc7a4xQb6sRmy6FmVWFbqwC1yzeXbSo9ki2+zd3OezgyfNmWgoEj3MwlbQXMNi9Vq8kA9Hf4rayLs28fqNmc2lnVHN0oWl0c3RUb2tlbnOBoWN2YWxZDlgwgg5UMAMCAQAwgg5LBgkqhkiG9w0BBwKggg48MIIOOAIBAzEPMA0GCWCGSAFlAwQCAQUAMIGCBgsqhkiG9w0BCRABBKBzBHEwbwIBAQYJYIZIAYb9bAcBMDEwDQYJYIZIAWUDBAIBBQAEIN9kcN+isM+IE/t1DvJC4okYdN20pxDPSndT5iylnjCLAhBRQpNpl+hZzxGFWiSR+jEfGA8yMDI2MDUyNjE2MjUwOVoCCQD4LCk9C/LGgqCCC9owggUeMIIDBqADAgECAhAJGQ3BLJyH2zL9CrVQve1LMA0GCSqGSIb3DQEBCwUAMGkxCzAJBgNVBAYTAlVTMRcwFQYDVQQKEw5EaWdpQ2VydCwgSW5jLjFBMD8GA1UEAxM4RGlnaUNlcnQgVHJ1c3RlZCBHNCBUaW1lU3RhbXBpbmcgUlNBNDA5NiBTSEEyNTYgMjAyNSBDQTEwHhcNMjUwNjExMDAwMDAwWhcNMzYwOTEwMjM1OTU5WjBfMQswCQYDVQQGEwJVUzEXMBUGA1UEChMORGlnaUNlcnQsIEluYy4xNzA1BgNVBAMTLkFkb2JlIFNIQTI1NiBFQ0MyNTYgVGltZXN0YW1wIFJlc3BvbmRlciAyMDI1IDEwWTATBgcqhkjOPQIBBggqhkjOPQMBBwNCAAQ6mcnV2UjvS/OI18aycCDz3iLKcO/5PIz9YsMW+WTtD24jd4o1bm7HW81d/LCte4Z0tLuYZxjhHR9hJ7FMEanyo4IBlTCCAZEwDAYDVR0TAQH/BAIwADAdBgNVHQ4EFgQUIHaho25xFY90lQ2upCykNj9YGRUwHwYDVR0jBBgwFoAU729TSunkBnx6yuKQVvYv1Ensy04wDgYDVR0PAQH/BAQDAgeAMBYGA1UdJQEB/wQMMAoGCCsGAQUFBwMIMIGVBggrBgEFBQcBAQSBiDCBhTAkBggrBgEFBQcwAYYYaHR0cDovL29jc3AuZGlnaWNlcnQuY29tMF0GCCsGAQUFBzAChlFodHRwOi8vY2FjZXJ0cy5kaWdpY2VydC5jb20vRGlnaUNlcnRUcnVzdGVkRzRUaW1lU3RhbXBpbmdSU0E0MDk2U0hBMjU2MjAyNUNBMS5jcnQwXwYDVR0fBFgwVjBUoFKgUIZOaHR0cDovL2NybDMuZGlnaWNlcnQuY29tL0RpZ2lDZXJ0VHJ1c3RlZEc0VGltZVN0YW1waW5nUlNBNDA5NlNIQTI1NjIwMjVDQTEuY3JsMCAGA1UdIAQZMBcwCAYGZ4EMAQQCMAsGCWCGSAGG/WwHATANBgkqhkiG9w0BAQsFAAOCAgEASpz+Ks655Om2nuuJjZLgL3oFXxeFme+djwiBdVPkHISv4fRDXtO/UgFO7Oun+s6OoNrYKQ6GxaRLUu23DmrCeEyvBdE5RX/CAEtK473PsDso8c1tmkjqDSHzgxDRswoX/EHWIsSRrjJM8RWB7Kd3KPja0juZtkFVpJzqjk/dqJ9UaqyiKfKrCRiwIpLU1CdBRFnj6uxJTfh0y7xzr+rWOPHVMJNezF53iJo9wi+QSOX2ee6ZrbdKAYHWO8sM+EZG0vzNaWeqUN1LlTg57Q1PKpKCxiCmKgqsxGXmScWisZPzjEuUOyrLD9OJjyvXO8SeHvf6xPFwhnCE3gc2edsH7QCVdsJ3OpKZ7JMubwI2GwqI9MgwGnKJG35k+8vQE9MLziVD30i4y8jyOSdMafeXHYvGx0aGAwCObM2ezGSmndVWr9DPh1cGamNArjTUkcWRF0yo0UzJwdG14VQqPl5nlj/2tLqk206DT2FsIMQKCa42UJbIhS2hdLxnHN8SpkpyeU62gU4VT5ZRWaqmbvw+4QFIgHQoWPeMOwNpVHqfWAocb2v7bsomgvKoMd55kjGjbnct65xikEaSMe5TlGjNmfozbq1BC8OLF9eqA6L4ZW1ZieRJIP0YBi9EiQX5mH0LNyNWA/CugYgd9bxzRHF+9RoVX8ar833EfBpGPsRSHkwwgga0MIIEnKADAgECAhANx6xXBf8hmS5AQyIMOkmGMA0GCSqGSIb3DQEBCwUAMGIxCzAJBgNVBAYTAlVTMRUwEwYDVQQKEwxEaWdpQ2VydCBJbmMxGTAXBgNVBAsTEHd3dy5kaWdpY2VydC5jb20xITAfBgNVBAMTGERpZ2lDZXJ0IFRydXN0ZWQgUm9vdCBHNDAeFw0yNTA1MDcwMDAwMDBaFw0zODAxMTQyMzU5NTlaMGkxCzAJBgNVBAYTAlVTMRcwFQYDVQQKEw5EaWdpQ2VydCwgSW5jLjFBMD8GA1UEAxM4RGlnaUNlcnQgVHJ1c3RlZCBHNCBUaW1lU3RhbXBpbmcgUlNBNDA5NiBTSEEyNTYgMjAyNSBDQTEwggIiMA0GCSqGSIb3DQEBAQUAA4ICDwAwggIKAoICAQC0eDHTCphBcr48RsAcrHXbo0ZodLRRF51NrY0NlLWZloMsVO1DahGPNRcybEKq+RuwOnPhof6pvF4uGjwjqNjfEvUi6wuim5bap+0lgloM2zX4kftn5B1IpYzTqpyFQ/4Bt0mAxAHeHYNnQxqXmRinvuNgxVBdJkf77S2uPoCj7GH8BLuxBG5AvftBdsOECS1UkxBvMgEdgkFiDNYiOTx4OtiFcMSkqTtF2hfQz3zQSku2Ws3IfDReb6e3mmdglTcaarps0wjUjsZvkgFkriK9tUKJm/s80FiocSk1VYLZlDwFt+cVFBURJg6zMUjZa/zbCclF83bRVFLeGkuAhHiGPMvSGmhgaTzVyhYn4p0+8y9oHRaQT/aofEnS5xLrfxnGpTXiUOeSLsJygoLPp66bkDX1ZlAeSpQl92QOMeRxykvq6gbylsXQskBBBnGy3tW/AMOMCZIVNSaz7BX8VtYGqLt9MmeOreGPRdtBx3yGOP+rx3rKWDEJlIqLXvJWnY0v5ydPpOjL6s36czwzsucuoKs7Yk/ehb//Wx+5kMqIMRvUBDx6z1ev+7psNOdgJMoiwOrUG2ZdSoQbU2rMkpLiQ6bGRinZbI4OLu9BMIFm1UUl9VnePs6BaaeEWvjJSjNm2qA+sdFUeEY0qVjPKOWug/G6X5uAiynM7Bu2ayBjUwIDAQABo4IBXTCCAVkwEgYDVR0TAQH/BAgwBgEB/wIBADAdBgNVHQ4EFgQU729TSunkBnx6yuKQVvYv1Ensy04wHwYDVR0jBBgwFoAU7NfjgtJxXWRM3y5nP+e6mK4cD08wDgYDVR0PAQH/BAQDAgGGMBMGA1UdJQQMMAoGCCsGAQUFBwMIMHcGCCsGAQUFBwEBBGswaTAkBggrBgEFBQcwAYYYaHR0cDovL29jc3AuZGlnaWNlcnQuY29tMEEGCCsGAQUFBzAChjVodHRwOi8vY2FjZXJ0cy5kaWdpY2VydC5jb20vRGlnaUNlcnRUcnVzdGVkUm9vdEc0LmNydDBDBgNVHR8EPDA6MDigNqA0hjJodHRwOi8vY3JsMy5kaWdpY2VydC5jb20vRGlnaUNlcnRUcnVzdGVkUm9vdEc0LmNybDAgBgNVHSAEGTAXMAgGBmeBDAEEAjALBglghkgBhv1sBwEwDQYJKoZIhvcNAQELBQADggIBABfO+xaAHP4HPRF2cTC9vgvItTSmf83Qh8WIGjB/T8ObXAZz8OjuhUxjaaFdleMM0lBryPTQM2qEJPe36zwbSI/mS83afsl3YTj+IQhQE7jU/kXjjytJgnn0hvrV6hqWGd3rLAUt6vJy9lMDPjTLxLgXf9r5nWMQwr8Myb9rEVKChHyfpzee5kH0F8HABBgr0UdqirZ7bowe9Vj2AIMD8liyrukZ2iA/wdG2th9y1IsA0QF8dTXqvcnTmpfeQh35k5zOCPmSNq1UH410ANVko43+Cdmu4y81hjajV/gxdEkMx1NKU4uHQcKfZxAvBAKqMVuqte69M9J6A47OvgRaPs+2ykgcGV00TYr2Lr3ty9qIijanrUR3anzEwlvzZiiyfTPjLbnFRsjsYg39OlV8cipDoq7+qNNjqFzeGxcytL5TTLL4ZaoBdqbhOhZ3ZRDUphPvSRmMThi0vw9vODRzW6AxnJll38F0cuJG7uEBYTptMSbhdhGQDpOXgpIUsWTjd6xpR6oaQf/DJbg3s6KCLPAlZ66RzIg9sC+NJpud/v4+7RWsWCiKi9EOLLHfMR2ZyJ/+xhCx9yHbxtl5TPau1j/1MIDpMPx0LckTetiSuEtQvLsNz3Qbp7wGWqbIiOWCnb5WqxL3/BAPvIXKUjPSxyZsq8WhbaM2tszWkPZPubdcMYIBvTCCAbkCAQEwfTBpMQswCQYDVQQGEwJVUzEXMBUGA1UEChMORGlnaUNlcnQsIEluYy4xQTA/BgNVBAMTOERpZ2lDZXJ0IFRydXN0ZWQgRzQgVGltZVN0YW1waW5nIFJTQTQwOTYgU0hBMjU2IDIwMjUgQ0ExAhAJGQ3BLJyH2zL9CrVQve1LMA0GCWCGSAFlAwQCAQUAoIHRMBoGCSqGSIb3DQEJAzENBgsqhkiG9w0BCRABBDAcBgkqhkiG9w0BCQUxDxcNMjYwNTI2MTYyNTA5WjArBgsqhkiG9w0BCRACDDEcMBowGDAWBBTXh7p5KWOfuMEvSqYWUXTL4KWA8zAvBgkqhkiG9w0BCQQxIgQg3o7QSKyv53CTx+t1CWSB5c78cYXL+2bTlcgj0YFYM90wNwYLKoZIhvcNAQkQAi8xKDAmMCQwIgQg0yOv4l/dPRbyby8lnnzkiduG0tmqsHsm9Zg3CGCJVngwCgYIKoZIzj0EAwIERjBEAiBFlBVSBq8V91GczomavNTcGaX2xtllJj/BePRjCyEmlwIgbVk764G22Efb0GVVtrK5DpCLVUJ+RQ7KAdAnWRPp9BplclZhbHOhaG9jc3BWYWxzgVkC2zCCAtcKAQCgggLQMIICzAYJKwYBBQUHMAEBBIICvTCCArkwgaKiFgQU0K1CivB6FAclxpfAQ6gjhei1LSMYDzIwMjYwNTIxMTkyNjMzWjB3MHUwTTAJBgUrDgMCGgUABBSK77IBEG9rZRVNwaO3UamLc5LLFgQU0K1CivB6FAclxpfAQ6gjhei1LSMCFElzIGs+dd/JbK9/Vv8tKq2wQAfdgAAYDzIwMjYwNTIxMTkyNjMzWqARGA8yMDI2MDUyODE5MjYzM1owDQYJKoZIhvcNAQELBQADggIBAENS3O8ralMvCaZqLJ1459vrXCb4xGIRQJB3eBzlEsk/+Bm5isyckRWj4TaS3uINDqah+MNUVkdhe8hP7L0De8zeLOjUrCFIPatvzO7cH9yRB03Qw7jTTIZK0m3cAiQhBkE7b5JbUWtKRLoZFFklefPKgjqs9YV9Ks6d6SO+sDPtipo2jUEmf/2Zvezr7wTnEm0Mxk3KwWZyIjlKilF7pzQCsjLOssC9b1i2DtHhcjYJMHEHFdWNM7f247yNWu7B/xZk8Ixtg5uanPfGoFD6C0WhGxNTXpgY52mF/eoI0WdhQ0lAqVRG0/70ArWgJN36UkrfKEkoNPRSEkIzGvVVMrz0rf8umnXCg777QcO1Du5ehcFReG+vFAtL45eFuwHOlxYuESPFQjocmY/sqoFJb8puKIfNjrde/8dxKsBogfpCvPgdYjmZSjZiKyeytIsEwjajoE0ULaDHl3sV3Dl33sUCLMNJYBYt4SzyQx97TBWdpCKTJH4Lghs9FrZllQy66L8k1tBfim2oNb0wI5aRz+zIyzGgcUAEeWZUMFYFv53w+5YKJubqhRO6cFrcRsXraAa2IUSLRpmEGv84TvNanD1fyP0+FswNM3OQd1hY6iDmnGEfVt1Qaihg6ZD8WA/StSkX2vMJTp3Sss044KnY5EFHIcYDeZdNuiqkpc7jM+IIY3BhZFkQUQAAAAAAAAAAAAAAAAAAAAAAAAAAAAAAAAAAAAAAAAAAAAAAAAAAAAAAAAAAAAAAAAAAAAAAAAAAAAAAAAAAAAAAAAAAAAAAAAAAAAAAAAAAAAAAAAAAAAAAAAAAAAAAAAAAAAAAAAAAAAAAAAAAAAAAAAAAAAAAAAAAAAAAAAAAAAAAAAAAAAAAAAAAAAAAAAAAAAAAAAAAAAAAAAAAAAAAAAAAAAAAAAAAAAAAAAAAAAAAAAAAAAAAAAAAAAAAAAAAAAAAAAAAAAAAAAAAAAAAAAAAAAAAAAAAAAAAAAAAAAAAAAAAAAAAAAAAAAAAAAAAAAAAAAAAAAAAAAAAAAAAAAAAAAAAAAAAAAAAAAAAAAAAAAAAAAAAAAAAAAAAAAAAAAAAAAAAAAAAAAAAAAAAAAAAAAAAAAAAAAAAAAAAAAAAAAAAAAAAAAAAAAAAAAAAAAAAAAAAAAAAAAAAAAAAAAAAAAAAAAAAAAAAAAAAAAAAAAAAAAAAAAAAAAAAAAAAAAAAAAAAAAAAAAAAAAAAAAAAAAAAAAAAAAAAAAAAAAAAAAAAAAAAAAAAAAAAAAAAAAAAAAAAAAAAAAAAAAAAAAAAAAAAAAAAAAAAAAAAAAAAAAAAAAAAAAAAAAAAAAAAAAAAAAAAAAAAAAAAAAAAAAAAAAAAAAAAAAAAAAAAAAAAAAAAAAAAAAAAAAAAAAAAAAAAAAAAAAAAAAAAAAAAAAAAAAAAAAAAAAAAAAAAAAAAAAAAAAAAAAAAAAAAAAAAAAAAAAAAAAAAAAAAAAAAAAAAAAAAAAAAAAAAAAAAAAAAAAAAAAAAAAAAAAAAAAAAAAAAAAAAAAAAAAAAAAAAAAAAAAAAAAAAAAAAAAAAAAAAAAAAAAAAAAAAAAAAAAAAAAAAAAAAAAAAAAAAAAAAAAAAAAAAAAAAAAAAAAAAAAAAAAAAAAAAAAAAAAAAAAAAAAAAAAAAAAAAAAAAAAAAAAAAAAAAAAAAAAAAAAAAAAAAAAAAAAAAAAAAAAAAAAAAAAAAAAAAAAAAAAAAAAAAAAAAAAAAAAAAAAAAAAAAAAAAAAAAAAAAAAAAAAAAAAAAAAAAAAAAAAAAAAAAAAAAAAAAAAAAAAAAAAAAAAAAAAAAAAAAAAAAAAAAAAAAAAAAAAAAAAAAAAAAAAAAAAAAAAAAAAAAAAAAAAAAAAAAAAAAAAAAAAAAAAAAAAAAAAAAAAAAAAAAAAAAAAAAAAAAAAAAAAAAAAAAAAAAAAAAAAAAAAAAAAAAAAAAAAAAAAAAAAAAAAAAAAAAAAAAAAAAAAAAAAAAAAAAAAAAAAAAAAAAAAAAAAAAAAAAAAAAAAAAAAAAAAAAAAAAAAAAAAAAAAAAAAAAAAAAAAAAAAAAAAAAAAAAAAAAAAAAAAAAAAAAAAAAAAAAAAAAAAAAAAAAAAAAAAAAAAAAAAAAAAAAAAAAAAAAAAAAAAAAAAAAAAAAAAAAAAAAAAAAAAAAAAAAAAAAAAAAAAAAAAAAAAAAAAAAAAAAAAAAAAAAAAAAAAAAAAAAAAAAAAAAAAAAAAAAAAAAAAAAAAAAAAAAAAAAAAAAAAAAAAAAAAAAAAAAAAAAAAAAAAAAAAAAAAAAAAAAAAAAAAAAAAAAAAAAAAAAAAAAAAAAAAAAAAAAAAAAAAAAAAAAAAAAAAAAAAAAAAAAAAAAAAAAAAAAAAAAAAAAAAAAAAAAAAAAAAAAAAAAAAAAAAAAAAAAAAAAAAAAAAAAAAAAAAAAAAAAAAAAAAAAAAAAAAAAAAAAAAAAAAAAAAAAAAAAAAAAAAAAAAAAAAAAAAAAAAAAAAAAAAAAAAAAAAAAAAAAAAAAAAAAAAAAAAAAAAAAAAAAAAAAAAAAAAAAAAAAAAAAAAAAAAAAAAAAAAAAAAAAAAAAAAAAAAAAAAAAAAAAAAAAAAAAAAAAAAAAAAAAAAAAAAAAAAAAAAAAAAAAAAAAAAAAAAAAAAAAAAAAAAAAAAAAAAAAAAAAAAAAAAAAAAAAAAAAAAAAAAAAAAAAAAAAAAAAAAAAAAAAAAAAAAAAAAAAAAAAAAAAAAAAAAAAAAAAAAAAAAAAAAAAAAAAAAAAAAAAAAAAAAAAAAAAAAAAAAAAAAAAAAAAAAAAAAAAAAAAAAAAAAAAAAAAAAAAAAAAAAAAAAAAAAAAAAAAAAAAAAAAAAAAAAAAAAAAAAAAAAAAAAAAAAAAAAAAAAAAAAAAAAAAAAAAAAAAAAAAAAAAAAAAAAAAAAAAAAAAAAAAAAAAAAAAAAAAAAAAAAAAAAAAAAAAAAAAAAAAAAAAAAAAAAAAAAAAAAAAAAAAAAAAAAAAAAAAAAAAAAAAAAAAAAAAAAAAAAAAAAAAAAAAAAAAAAAAAAAAAAAAAAAAAAAAAAAAAAAAAAAAAAAAAAAAAAAAAAAAAAAAAAAAAAAAAAAAAAAAAAAAAAAAAAAAAAAAAAAAAAAAAAAAAAAAAAAAAAAAAAAAAAAAAAAAAAAAAAAAAAAAAAAAAAAAAAAAAAAAAAAAAAAAAAAAAAAAAAAAAAAAAAAAAAAAAAAAAAAAAAAAAAAAAAAAAAAAAAAAAAAAAAAAAAAAAAAAAAAAAAAAAAAAAAAAAAAAAAAAAAAAAAAAAAAAAAAAAAAAAAAAAAAAAAAAAAAAAAAAAAAAAAAAAAAAAAAAAAAAAAAAAAAAAAAAAAAAAAAAAAAAAAAAAAAAAAAAAAAAAAAAAAAAAAAAAAAAAAAAAAAAAAAAAAAAAAAAAAAAAAAAAAAAAAAAAAAAAAAAAAAAAAAAAAAAAAAAAAAAAAAAAAAAAAAAAAAAAAAAAAAAAAAAAAAAAAAAAAAAAAAAAAAAAAAAAAAAAAAAAAAAAAAAAAAAAAAAAAAAAAAAAAAAAAAAAAAAAAAAAAAAAAAAAAAAAAAAAAAAAAAAAAAAAAAAAAAAAAAAAAAAAAAAAAAAAAAAAAAAAAAAAAAAAAAAAAAAAAAAAAAAAAAAAAAAAAAAAAAAAAAAAAAAAAAAAAAAAAAAAAAAAAAAAAAAAAAAAAAAAAAAAAAAAAAAAAAAAAAAAAAAAAAAAAAAAAAAAAAAAAAAAAAAAAAAAAAAAAAAAAAAAAAAAAAAAAAAAAAAAAAAAAAAAAAAAAAAAAAAAAAAAAAAAAAAAAAAAAAAAAAAAAAAAAAAAAAAAAAAAAAAAAAAAAAAAAAAAAAAAAAAAAAAAAAAAAAAAAAAAAAAAAAAAAAAAAAAAAAAAAAAAAAAAAAAAAAAAAAAAAAAAAAAAAAAAAAAAAAAAAAAAAAAAAAAAAAAAAAAAAAAAAAAAAAAAAAAAAAAAAAAAAAAAAAAAAAAAAAAAAAAAAAAAAAAAAAAAAAAAAAAAAAAAAAAAAAAAAAAAAAAAAAAAAAAAAAAAAAAAAAAAAAAAAAAAAAAAAAAAAAAAAAAAAAAAAAAAAAAAAAAAAAAAAAAAAAAAAAAAAAAAAAAAAAAAAAAAAAAAAAAAAAAAAAAAAAAAAAAAAAAAAAAAAAAAAAAAAAAAAAAAAAAAAAAAAAAAAAAAAAAAAAAAAAAAAAAAAAAAAAAAAAAAAAAAAAAAAAAAAAAAAAAAAAAAAAAAAAAAAAAAAAAAAAAAAAAAAAAAAAAAAAAAAAAAAAAAAAAAAAAAAAAAAAAAAAAAAAAAAAAAAAAAAAAAAAAAAAAAAAAAAAAAAAAAAAAAAAAAAAAAAAAAAAAAAAAAAAAAAAAAAAAAAAAAAAAAAAAAAAAAAAAAAAAAAAAAAAAAAAAAAAAAAAAAAAAAAAAAAAAAAAAAAAAAAAAAAAAAAAAAAAAAAAAAAAAAAAAAAAAAAAAAAAAAAAAAAAAAAAAAAAAAAAAAAAAAAAAAAAAAAAAAAAAAAAAAAAAAAAAAAAAAAAAAAAAAAAAAAAAAAAAAAAAAAAAAAAAAAAAAAAAAAAAAAAAAAAAAAAAAAAAAAAAAAAAAAAAAAAAAAAAAAAAAAAAAAAAAAAAAAAAAAAAAAAAAAAAAAAAAAAAAAAAAAAAAAAAAAAAAAAAAAAAAAAAAAAAAAAAAAAAAAAAAAAAAAAAAAAAAAAAAAAAAAAAAAAAAAAAAAAAAAAAAAAAAAAAAAAAAAAAAAAAAAAAAAAAAAAAAAAAAAAAAAAAAAAAAAAAAAAAAAAAAAAAAAAAAAAAAAAAAAAAAAAAAAAAAAAAAAAAAAAAAAAAAAAAAAAAAAAAAAAAAAAAAAAAAAAAAAAAAAAAAAAAAAAAAAAAAAAAAAAAAAAAAAAAAAAAAAAAAAAAAAAAAAAAAAAAAAAAAAAAAAAAAAAAAAAAAAAAAAAAAAAAAAAAAAAAAAAAAAAAAAAAAAAAAAAAAAAAAAAAAAAAAAAAAAAAAAAAAAAAAAAAAAAAAAAAAAAAAAAAAAAAAAAAAAAAAAAAAAAAAAAAAAAAAAAAAAAAAAAAAAAAAAAAAAAAAAAAAAAAAAAAAAAAAAAAAAAAAAAAAAAAAAAAAAAAAAAAAAAAAAAAAAAAAAAAAAAAAAAAAAAAAAAAAAAAAAAAAAAAAAAAAAAAAAAAAAAAAAAAAAAAAAAAAAAAAAAAAAAAAAAAAAAAAAAAAAAAAAAAAAAAAAAAAAAAAAAAAAAAAAAAAAAAAAAAAAAAAAAAAAAAAAAAAAAAAAAAAAAAAAAAAAAAAAAAAAAAAAAAAAAAAAAAAAAAAAAAAAAAAAAAAAAAAAAAAAAAAAAAAAAAAAAAAAAAAAAAAAAAAAAAAAAAAAAAAAAAAAAAAAAAAAAAAAAAAAAAAAAAAAAAAAAAAAAAAAAAAAAAAAAAAAAAAAAAAAAAAAAAAAAAAAAAAAAAAAAAAAAAAAAAAAAAAAAAAAAAAAAAAAAAAAAAAAAAAAAAAAAAAAAAAAAAAAAAAAAAAAAAAAAAAAAAAAAAAAAAAAAAAAAAAAAAAAAAAAAAAAAAAAAAAAAAAAAAAAAAAAAAAAAAAAAAAAAAAAAAAAAAAAAAAAAAAAAAAAAAAAAAAAAAAAAAAAAAAAAAAAAAAAAAAAAAAAAAAAAAAAAAAAAAAAAAAAAAAAAAAAAAAAAAAAAAAAAAAAAAAAAAAAAAAAAAAAAAAAAAAAAAAAAAAAAAAAAAAAAAAAAAAAAAAAAAAAAAAAAAAAAAAAAAAAAAAAAAAAAAAAAAAAAAAAAAAAAAAAAAAAAAAAAAAAAAAAAAAAAAAAAAAAAAAAAAAAAAAAAAAAAAAAAAAAAAAAAAAAAAAAAAAAAAAAAAAAAAAAAAAAAAAAAAAAAAAAAAAAAAAAAAAAAAAAAAAAAAAAAAAAAAAAAAAAAAAAAAAAAAAAAAAAAAAAAAAAAAAAAAAAAAAAAAAAAAAAAAAAAAAAAAAAAAAAAAAAAAAAAAAAAAAAAAAAAAAAAAAAAAAAAAAAAAAAAAAAAAAAAAAAAAAAAAAAAAAAAAAAAAAAAAAAAAAAAAAAAAAAAAAAAAAAAAAAAAAAAAAAAAAAAAAAAAAAAAAAAAAAAAAAAAAAAAAAAAAAAAAAAAAAAAAAAAAAAAAAAAAAAAAAAAAAAAAAAAAAAAAAAAAAAAAAAAAAAAAAAAAAD2WQEAh7yayrWS4qNJLhHNBwFP6811wjfOa2OWhiVZMuDtYN9Wq3xp+o1HiBIGmoSM+77WdMamQD8+EuKxHDAN/6c07l2O5RNvsAzYMQ3PoEaek+4BQtE8fqSnA3IlUhVuYAk3vlR9f76eO6GqU3RrN8Bv0Fbc25yNYwrBHKgpaLMYUamOr7W1/gw8PT4Ml7rtQGdQ2AGWlnrkfuJPkPhymK+8QcT8vXHtIhVyxEJrR7uDztqD8WXrHMss3LV5F1L1oOPFeQ9kcx1gnhSAQFAdiU9lEs+lDxwWBCflCoiwgte5NO6438J5QwZTFvAcVxi2d/LQOSs94RvEIgzbg4ZBRXFQ2w==</c2pa:manifest></metadata>
  <!-- Generator: Adobe Illustrator 30.1.0, SVG Export Plug-In . SVG Version: 2.1.1 Build 136)  -->
  <defs>
    <style>
      .st0 {
        fill: none;
        stroke: #000;
        stroke-miterlimit: 10;
        stroke-width: .7px;
      }

      .st1 {
        fill: #00828e;
      }

      .st2, .st3 {
        fill: #ff9500;
      }

      .st3 {
        fill-rule: evenodd;
      }

      .st4 {
        fill: #b50043;
      }
    </style>
  </defs>
  <g>
    <path class="st3" d="M388.5,215.5c-23.7-50.9-74.9-55.4-76.6-55.6-3.1-.4-6.9-1.9-10.2-7.4-2-3.3-3.1-6.4-5.9-8.3-.3-.4,18-.2,30.8,3.8-14.5-9.7-34.9-11-38.5-11.2,1.4,0,2.6-3.4,5.7-7.5,4.1-5.5,13.3-4.6,18-3.4,22,5.8,30.3,13.5,35.4,17.1,27.3,19,41,50.6,41.3,72.6h0Z"/>
    <path class="st1" d="M399.2,308c-7.1-3.2-12.6-6.9-22,6.2-3.8,5.2-9.1,10.7-9.1,10.7,5.8-2.2,7.5-.5,13,3.8,4.7,3.5,11,3.5,11,3.5,0,0-.2,5.6,6.2,12.5,6.3,5.6,4.7,8.3,4.7,8.3,0,0,2.8-5.6,6.1-12.1,6.7-13.1,7.2-22-2.9-29,4.7-8.1,7.3-15.7,8.2-22.9.2-1.8,4.5-33.9-11.6-28.9,0,0-5.8,1.4-7.4,9.3,0,.2,0,.4,0,.4,0,0,8.9.3,9.7,13.7.4,9.4-2.2,17.5-5.7,24.5h0s0,0,0,0Z"/>
    <path class="st1" d="M374.6,333.8c-6.1-5.2-14.1-1.3-16.8.7-5.1,4-9.9,7.2-15.9,10.2-40.6,20.4-88.6,9.9-117.3-22.6-6.3,12.9-20.3,22-34.5,22.8,35.8,43.1,97.7,57.4,149.8,31.2l.5-.2c29.7-15.6,43.1-38.2,43.1-38.2,0,0-3.9.3-8.8-3.9h0Z"/>
    <path class="st1" d="M389.1,343.7c-12,17.1-27.3,31.1-47.1,40.9-26.6,13.2-55.6,16.6-82.8,11.6,2.1,13.2-3,26.4-13,34.6,25.1,3.1,94.3,4.9,143.4-58.1.8-1,3.6-4.6,3.8-5,3.6-5.7,5-10.8.6-16.3-1.5-1.9-4.8-4.4-5-7.7h0Z"/>
    <path class="st1" d="M389.9,343.2s0,0,0,.1c0,0,0,0,0,0h0s0,0,0,0Z"/>
    <path class="st4" d="M166.3,326.4c-4.4-8.8-7.8-17.9-10.1-27-9.8,11.2-26.4,16.8-40.6,13.5l.9,4.4s14.3,62,75,95.4c.4.2.8.4,1.1.6,11.9,6.6,24.8,11.4,38,14.5l3.6.8c13.6-5.1,20.3-20.2,16.1-34.4-35.3-9.1-66.5-32.7-84.2-67.8h0Z"/>
    <path class="st2" d="M247.6,120.9s-15.4,1.1-36.8,9.3l-13.4,6.3c-22.3,11.2-40.7,27-54.7,45.7,2.9,12.1,13.7,20.9,26.4,21.3,12.3-22,31.1-40.6,55.3-52.8l2.2-1s22.3-10.9,43.2-12.4c1.4,0,5.5-.3,6.7-.7,2.3-.7,4.2-2.3,6.2-5.3,2.4-3.7,3.1-7.9,10.1-9.6-11.5-1.5-21.8-3.6-45.3-.8h0Z"/>
    <path class="st4" d="M136.9,190.5c-21.6,33-30.3,73.5-23.2,113,13.8,6.2,33.5-1.3,40.3-15.1-4.3-26.5-.1-53.5,11.2-77.2-12.4-1.8-23-9.7-28.2-20.8h0Z"/>
    <path class="st2" d="M291.9,151.3c-2.6-5.7-8-7.5-10-7.7-10.4.4-27.2,1-47.9,10.3l-4.7,2.4c-10,5-19,11.2-26.9,18.3,2.3,9.8,9.8,17.7,19.6,20.5,8.5-10.4,19.2-19.2,31.9-25.6,10.7-5.4,25.8-10.2,43.9-10.7-3.8-1.8-4.5-4.7-5.8-7.7Z"/>
    <path class="st4" d="M216.9,202c-9.7-3.8-17.4-11.4-21.1-20.9-35.1,36.5-45.2,92.6-21.1,140.4,2.6,5.2,5.5,10.1,8.7,14.7,14.3,2.8,31.1-7.2,35.3-21.3-3.1-4.3-5.9-8.8-8.4-13.7-16.5-32.9-12.8-70.7,6.6-99.2h0Z"/>
    <path class="st3" d="M388.5,215.5c-23.7-50.9-74.9-55.4-76.6-55.6-3.1-.4-6.9-1.9-10.2-7.4-2-3.3-3.1-6.4-5.9-8.3-.3-.4,18-.2,30.8,3.8-14.5-9.7-34.9-11-38.5-11.2,1.4,0,2.6-3.4,5.7-7.5,4.1-5.5,13.3-4.6,18-3.4,22,5.8,30.3,13.5,35.4,17.1,27.3,19,41,50.6,41.3,72.6h0Z"/>
    <path class="st1" d="M399.2,308c-7.1-3.2-12.6-6.9-22,6.2-3.8,5.2-9.1,10.7-9.1,10.7,5.8-2.2,7.5-.5,13,3.8,4.7,3.5,11,3.5,11,3.5,0,0-.2,5.6,6.2,12.5,6.3,5.6,4.7,8.3,4.7,8.3,0,0,2.8-5.6,6.1-12.1,6.7-13.1,7.2-22-2.9-29,4.7-8.1,7.3-15.7,8.2-22.9.2-1.8,4.5-33.9-11.6-28.9,0,0-5.8,1.4-7.4,9.3,0,.2,0,.4,0,.4,0,0,8.9.3,9.7,13.7.4,9.4-2.2,17.5-5.7,24.5h0s0,0,0,0Z"/>
    <path class="st1" d="M374.6,333.8c-6.1-5.2-14.1-1.3-16.8.7-5.1,4-9.9,7.2-15.9,10.2-40.6,20.4-88.6,9.9-117.3-22.6-6.3,12.9-20.3,22-34.5,22.8,35.8,43.1,97.7,57.4,149.8,31.2l.5-.2c29.7-15.6,43.1-38.2,43.1-38.2,0,0-3.9.3-8.8-3.9h0Z"/>
    <path class="st1" d="M389.1,343.7c-12,17.1-27.3,31.1-47.1,40.9-26.6,13.2-55.6,16.6-82.8,11.6,2.1,13.2-3,26.4-13,34.6,25.1,3.1,94.3,4.9,143.4-58.1.8-1,3.6-4.6,3.8-5,3.6-5.7,5-10.8.6-16.3-1.5-1.9-4.8-4.4-5-7.7h0Z"/>
    <path class="st1" d="M389.9,343.2s0,0,0,.1c0,0,0,0,0,0h0s0,0,0,0Z"/>
    <path class="st4" d="M166.3,326.4c-4.4-8.8-7.8-17.9-10.1-27-9.8,11.2-26.4,16.8-40.6,13.5l.9,4.4s14.3,62,75,95.4c.4.2.8.4,1.1.6,11.9,6.6,24.8,11.4,38,14.5l3.6.8c13.6-5.1,20.3-20.2,16.1-34.4-35.3-9.1-66.5-32.7-84.2-67.8h0Z"/>
    <path class="st2" d="M247.6,120.9s-15.4,1.1-36.8,9.3l-13.4,6.3c-22.3,11.2-40.7,27-54.7,45.7,2.9,12.1,13.7,20.9,26.4,21.3,12.3-22,31.1-40.6,55.3-52.8l2.2-1s22.3-10.9,43.2-12.4c1.4,0,5.5-.3,6.7-.7,2.3-.7,4.2-2.3,6.2-5.3,2.4-3.7,3.1-7.9,10.1-9.6-11.5-1.5-21.8-3.6-45.3-.8h0Z"/>
    <path class="st4" d="M136.9,190.5c-21.6,33-30.3,73.5-23.2,113,13.8,6.2,33.5-1.3,40.3-15.1-4.3-26.5-.1-53.5,11.2-77.2-12.4-1.8-23-9.7-28.2-20.8h0Z"/>
    <path class="st2" d="M291.9,151.3c-2.6-5.7-8-7.5-10-7.7-10.4.4-27.2,1-47.9,10.3l-4.7,2.4c-10,5-19,11.2-26.9,18.3,2.3,9.8,9.8,17.7,19.6,20.5,8.5-10.4,19.2-19.2,31.9-25.6,10.7-5.4,25.8-10.2,43.9-10.7-3.8-1.8-4.5-4.7-5.8-7.7Z"/>
    <path class="st4" d="M216.9,202c-9.7-3.8-17.4-11.4-21.1-20.9-35.1,36.5-45.2,92.6-21.1,140.4,2.6,5.2,5.5,10.1,8.7,14.7,14.3,2.8,31.1-7.2,35.3-21.3-3.1-4.3-5.9-8.8-8.4-13.7-16.5-32.9-12.8-70.7,6.6-99.2h0Z"/>
  </g>
  <g>
    <path d="M824,359.7v-14h5.6v36.1h-5.6v-3.7c-2.1,2.9-5.1,4.4-9,4.4s-6.6-1.3-9.1-3.9c-2.5-2.6-3.8-5.8-3.8-9.6s1.3-7,3.8-9.6c2.5-2.6,5.5-3.9,9.1-3.9s6.9,1.4,9,4.3ZM810,374.8c1.5,1.5,3.5,2.3,5.8,2.3s4.3-.8,5.8-2.3c1.5-1.6,2.3-3.6,2.3-5.9s-.8-4.3-2.3-5.9c-1.5-1.6-3.5-2.4-5.8-2.4s-4.3.8-5.8,2.4c-1.5,1.5-2.3,3.5-2.3,5.9s.8,4.3,2.3,5.9Z"/>
    <path d="M864,371.3h-20.5c.4,1.9,1.4,3.4,2.8,4.5s3.3,1.6,5.4,1.6,5.1-1.1,6.7-3.2l4.6,2.7c-2.5,3.7-6.3,5.6-11.3,5.6s-7.5-1.3-10.2-3.8c-2.6-2.6-3.9-5.8-3.9-9.7s1.3-7,3.8-9.6c2.5-2.6,5.8-3.9,9.8-3.9s6.8,1.3,9.3,4c2.4,2.6,3.7,5.9,3.7,9.6s0,1.5-.2,2.3ZM843.5,366.7h15.2c-.4-2-1.2-3.6-2.6-4.7s-2.9-1.7-4.8-1.7-3.8.6-5.2,1.7c-1.4,1.1-2.3,2.7-2.6,4.6Z"/>
    <path d="M876.2,363.1c0,.8.4,1.4,1.2,1.9.8.5,2,1,3.6,1.4,1.2.3,2.3.6,3.1.9s1.8.8,2.8,1.4c1,.6,1.8,1.4,2.3,2.4.5,1,.8,2.1.7,3.4,0,2.5-1,4.4-2.9,5.8-1.9,1.4-4.3,2.1-7.2,2.1s-4.7-.5-6.6-1.6c-1.8-1.1-3.1-2.5-4-4.4l4.8-2.8c.9,2.5,2.8,3.7,5.7,3.7s4.4-1,4.4-2.9-1.6-2.5-4.9-3.3c-1.2-.3-2.3-.6-3.1-.9-.8-.3-1.8-.8-2.8-1.3-1-.6-1.8-1.4-2.3-2.3-.5-1-.8-2.1-.8-3.4,0-2.4.9-4.3,2.7-5.7,1.8-1.4,4.1-2.2,6.8-2.2s4,.5,5.7,1.4c1.7.9,2.9,2.3,3.8,3.9l-4.7,2.6c-.9-2-2.5-2.9-4.8-2.9s-2,.2-2.7.7-1.1,1.2-1.1,2Z"/>
    <path d="M903,351.1c-.7.7-1.5,1-2.5,1s-1.8-.3-2.5-1c-.7-.7-1-1.6-1-2.5s.3-1.8,1-2.5c.7-.7,1.5-1.1,2.5-1.1s1.8.4,2.5,1.1c.7.7,1,1.5,1,2.5s-.4,1.8-1.1,2.5ZM903.4,381.8h-5.6v-25.8h5.6v25.8Z"/>
    <path d="M933.4,359.8v-3.8h5.5v24.6c0,3.9-1.3,6.9-3.9,9-2.5,2.1-5.7,3.1-9.4,3.1-5.9,0-10-2.1-12.2-6.2l4.8-2.8c1.3,2.6,3.9,4,7.5,4s4.3-.6,5.7-1.9c1.4-1.3,2-3,2-5.2v-3.1c-2.1,3-5.1,4.5-9,4.5s-6.7-1.3-9.2-3.9c-2.5-2.6-3.8-5.8-3.8-9.4s1.3-6.8,3.8-9.4c2.5-2.6,5.6-3.9,9.2-3.9s6.9,1.5,9,4.5ZM919.3,374.4c1.6,1.5,3.5,2.3,5.9,2.3s4.3-.8,5.8-2.3c1.6-1.5,2.4-3.5,2.4-5.8s-.8-4.2-2.4-5.8c-1.5-1.5-3.5-2.3-5.8-2.3s-4.3.8-5.9,2.3c-1.5,1.5-2.3,3.5-2.3,5.8s.8,4.2,2.3,5.8Z"/>
    <path d="M962.1,355.3c3,0,5.4,1,7.2,2.9,1.8,1.9,2.7,4.5,2.7,7.8v15.8h-5.6v-15.3c0-1.9-.5-3.4-1.5-4.4-1-1-2.4-1.5-4.2-1.5s-3.6.6-4.8,1.9c-1.2,1.3-1.8,3.1-1.8,5.5v13.8h-5.6v-25.8h5.6v3.3c1.7-2.6,4.4-4,8-4Z"/>
    <path d="M1002,363.1c0,.8.4,1.4,1.2,1.9.8.5,2,1,3.6,1.4,1.2.3,2.3.6,3.1.9s1.8.8,2.8,1.4c1,.6,1.8,1.4,2.3,2.4.5,1,.8,2.1.7,3.4,0,2.5-1,4.4-2.9,5.8-1.9,1.4-4.3,2.1-7.2,2.1s-4.7-.5-6.6-1.6c-1.8-1.1-3.1-2.5-4-4.4l4.8-2.8c.9,2.5,2.8,3.7,5.7,3.7s4.4-1,4.4-2.9-1.6-2.5-4.9-3.3c-1.2-.3-2.3-.6-3.1-.9-.8-.3-1.8-.8-2.8-1.3-1-.6-1.8-1.4-2.3-2.3-.5-1-.8-2.1-.8-3.4,0-2.4.9-4.3,2.7-5.7,1.8-1.4,4.1-2.2,6.8-2.2s4,.5,5.7,1.4c1.7.9,2.9,2.3,3.8,3.9l-4.7,2.6c-.9-2-2.5-2.9-4.8-2.9s-2,.2-2.7.7-1.1,1.2-1.1,2Z"/>
    <path d="M1037.3,356v5.4h-6.4v12.4c0,1.1.2,1.8.7,2.3s1.2.7,2.1.8c.9,0,2.1,0,3.5,0v5c-4.3.5-7.3.1-9.2-1.1-1.9-1.3-2.8-3.6-2.8-6.9v-12.4h-4.7v-5.4h4.7v-5.6l5.6-1.6v7.2h6.4Z"/>
    <path d="M1063.1,369.8v-13.8h5.6v25.8h-5.6v-3.3c-1.7,2.6-4.4,4-8,4s-5.4-1-7.2-2.9c-1.8-1.9-2.7-4.5-2.7-7.8v-15.8h5.6v15.3c0,1.9.5,3.4,1.5,4.4,1,1,2.4,1.5,4.2,1.5s3.6-.6,4.8-1.9c1.2-1.3,1.8-3.1,1.8-5.5Z"/>
    <path d="M1098.6,359.7v-14h5.6v36.1h-5.6v-3.7c-2.1,2.9-5.1,4.4-9,4.4s-6.6-1.3-9.1-3.9c-2.5-2.6-3.8-5.8-3.8-9.6s1.3-7,3.8-9.6c2.5-2.6,5.5-3.9,9.1-3.9s6.9,1.4,9,4.3ZM1084.7,374.8c1.5,1.5,3.5,2.3,5.8,2.3s4.3-.8,5.8-2.3c1.5-1.6,2.3-3.6,2.3-5.9s-.8-4.3-2.3-5.9c-1.5-1.6-3.5-2.4-5.8-2.4s-4.3.8-5.8,2.4c-1.5,1.5-2.3,3.5-2.3,5.9s.8,4.3,2.3,5.9Z"/>
    <path d="M1119.1,351.1c-.7.7-1.5,1-2.5,1s-1.8-.3-2.5-1c-.7-.7-1-1.6-1-2.5s.3-1.8,1-2.5c.7-.7,1.5-1.1,2.5-1.1s1.8.4,2.5,1.1c.7.7,1,1.5,1,2.5s-.4,1.8-1.1,2.5ZM1119.4,381.8h-5.6v-25.8h5.6v25.8Z"/>
    <path d="M1141.1,382.4c-3.8,0-7-1.3-9.6-3.9-2.7-2.6-4-5.9-4-9.6s1.3-7,4-9.6c2.6-2.6,5.8-3.9,9.6-3.9s7,1.3,9.6,3.9c2.6,2.6,4,5.9,4,9.6s-1.3,7-4,9.6c-2.6,2.6-5.8,3.9-9.6,3.9ZM1133.1,368.9c0,2.3.8,4.3,2.3,5.8s3.5,2.3,5.7,2.3,4.2-.8,5.7-2.3,2.3-3.5,2.3-5.8-.8-4.3-2.3-5.8-3.5-2.3-5.7-2.3-4.2.8-5.7,2.3-2.3,3.5-2.3,5.8Z"/>
  </g>
  <g>
    <g>
      <path d="M520.5,308.1c-16.5,0-30.2-5.5-41.3-16.6-10.9-11.1-16.4-24.8-16.4-41.1s5.5-30,16.4-41.1c11.1-11.1,24.8-16.6,41.3-16.6s20.3,2.5,29.1,7.6c8.7,5.1,15.4,11.9,19.9,20.5l-24.2,14.2c-2.2-4.5-5.5-8.1-9.9-10.7-4.4-2.6-9.4-3.9-15-3.9-8.4,0-15.4,2.8-21,8.4-5.5,5.6-8.3,12.8-8.3,21.5s2.8,15.6,8.3,21.4c5.5,5.5,12.5,8.3,21,8.3s10.7-1.3,15.2-3.8c4.4-2.5,7.8-6.1,9.9-10.6l24.5,14c-4.8,8.7-11.6,15.7-20.4,20.8-8.8,5.1-18.5,7.6-28.9,7.6Z"/>
      <path d="M666,208.7v-12.9h28.2v109.2h-28.2v-12.9c-8.4,10.6-20.3,15.9-35.6,15.9s-27.1-5.5-37.6-16.6c-10.3-11.2-15.5-24.9-15.5-41.1s5.2-29.6,15.5-40.8c10.5-11.2,23-16.8,37.6-16.8s27.2,5.3,35.6,15.9ZM614,272.7c5.7,5.7,12.9,8.5,21.6,8.5s15.9-2.8,21.6-8.5,8.7-13.2,8.7-22.3-2.9-16.4-8.7-22.1c-5.7-5.8-12.9-8.7-21.6-8.7s-15.9,2.9-21.6,8.7c-5.7,5.7-8.5,13-8.5,22.1s2.8,16.5,8.5,22.3Z"/>
      <path d="M747.9,195.8v18.8c2.5-6.8,6.7-12,12.7-15.6,6-3.6,12.8-5.4,20.5-5.4v31.5c-8.6-1.2-16.3.6-23.2,5.2-6.7,4.5-10,12-10,22.5v52.2h-28.2v-109.2h28.2Z"/>
      <path d="M886.4,291.5c-11.1,11.1-24.8,16.6-41.1,16.6s-30-5.5-41.1-16.6c-11.1-11.1-16.6-24.8-16.6-41.1s5.5-29.8,16.6-40.8c11.2-11.2,24.9-16.8,41.1-16.8s29.8,5.6,41.1,16.8c11.2,11.2,16.8,24.8,16.8,40.8s-5.6,29.9-16.8,41.1ZM824.1,272c5.7,5.7,12.7,8.5,21.2,8.5s15.5-2.8,21.2-8.5c5.7-5.7,8.5-12.9,8.5-21.6s-2.8-15.9-8.5-21.6c-5.7-5.7-12.7-8.5-21.2-8.5s-15.5,2.8-21.2,8.5c-5.5,5.8-8.3,13-8.3,21.6s2.8,15.8,8.3,21.6Z"/>
      <path d="M975.1,308.1c-16.5,0-30.2-5.5-41.3-16.6-10.9-11.1-16.4-24.8-16.4-41.1s5.5-30,16.4-41.1c11.1-11.1,24.8-16.6,41.3-16.6s20.3,2.5,29,7.6c8.7,5.1,15.4,11.9,19.9,20.5l-24.2,14.2c-2.2-4.5-5.5-8.1-9.9-10.7-4.4-2.6-9.4-3.9-15-3.9-8.4,0-15.4,2.8-21,8.4-5.5,5.6-8.3,12.8-8.3,21.5s2.8,15.6,8.3,21.4c5.5,5.5,12.5,8.3,21,8.3s10.7-1.3,15.2-3.8c4.4-2.5,7.8-6.1,9.9-10.6l24.5,14c-4.8,8.7-11.6,15.7-20.4,20.8-8.8,5.1-18.5,7.6-28.9,7.6Z"/>
      <path d="M1120.5,208.7v-12.9h28.2v109.2h-28.2v-12.9c-8.4,10.6-20.3,15.9-35.6,15.9s-27.1-5.5-37.6-16.6c-10.3-11.2-15.5-24.9-15.5-41.1s5.2-29.6,15.5-40.8c10.5-11.2,23-16.8,37.6-16.8s27.2,5.3,35.6,15.9ZM1068.6,272.7c5.7,5.7,12.9,8.5,21.6,8.5s15.9-2.8,21.6-8.5c5.8-5.8,8.7-13.2,8.7-22.3s-2.9-16.4-8.7-22.1c-5.7-5.8-12.9-8.7-21.6-8.7s-15.9,2.9-21.6,8.7c-5.7,5.7-8.5,13-8.5,22.1s2.8,16.5,8.5,22.3Z"/>
    </g>
    <g>
      <circle class="st0" cx="1173.5" cy="181.7" r="13.7"/>
      <path d="M1167.5,188.5v-14.7h6.3c2.1,0,3.6.5,4.8,1.4,1.1.9,1.7,2.2,1.7,3.9s-.3,2.1-.8,2.9c-.5.8-1.3,1.4-2.2,1.8-1,.4-2.1.6-3.4.6h-4.5l1.6-1.5v5.6h-3.4ZM1170.9,183.3l-1.6-1.6h4.3c1,0,1.8-.2,2.4-.7.5-.4.8-1.1.8-1.9s-.3-1.4-.8-1.9c-.5-.4-1.3-.7-2.4-.7h-4.3l1.6-1.6v8.4ZM1176.9,188.5l-3.7-5.4h3.7l3.7,5.4h-3.7Z"/>
    </g>
  </g>
</svg>