<?xml version="1.0" encoding="UTF-8"?><svg id="Camada_1" xmlns="http://www.w3.org/2000/svg" viewBox="0 0 1298.48 551.49"><metadata><c2pa:manifest xmlns:c2pa="http://c2pa.org/manifest">AAAsZ2p1bWIAAAAeanVtZGMycGEAEQAQgAAAqgA4m3EDYzJwYQAAACxBanVtYgAAAEdqdW1kYzJtYQARABCAAACqADibcQN1cm46dXVpZDpiNTk0YjJmZC1lYWQyLTRjMzctYTAwZi0yYmUyZjYxNDNlOTAAAAABp2p1bWIAAAApanVtZGMyYXMAEQAQgAAAqgA4m3EDYzJwYS5hc3NlcnRpb25zAAAAAMpqdW1iAAAAJmp1bWRjYm9yABEAEIAAAKoAOJtxA2MycGEuYWN0aW9ucwAAAACcY2JvcqFnYWN0aW9uc4GjZmFjdGlvbmtjMnBhLmVkaXRlZG1zb2Z0d2FyZUFnZW50bUFkb2JlIEZpcmVmbHlxZGlnaXRhbFNvdXJjZVR5cGV4Rmh0dHA6Ly9jdi5pcHRjLm9yZy9uZXdzY29kZXMvZGlnaXRhbHNvdXJjZXR5cGUvdHJhaW5lZEFsZ29yaXRobWljTWVkaWEAAACsanVtYgAAAChqdW1kY2JvcgARABCAAACqADibcQNjMnBhLmhhc2guZGF0YQAAAAB8Y2JvcqVqZXhjbHVzaW9uc4GiZXN0YXJ0GLhmbGVuZ3RoGTs0ZG5hbWVuanVtYmYgbWFuaWZlc3RjYWxnZnNoYTI1NmRoYXNoWCDvxZAjpzIasDa/Fwb/RNtfKjhnr/0MeDZfRONht40JiGNwYWRJAAAAAAAAAAAAAAACC2p1bWIAAAAkanVtZGMyY2wAEQAQgAAAqgA4m3EDYzJwYS5jbGFpbQAAAAHfY2JvcqhoZGM6dGl0bGVvR2VuZXJhdGVkIEltYWdlaWRjOmZvcm1hdG1pbWFnZS9zdmcreG1samluc3RhbmNlSUR4LHhtcDppaWQ6MTRjN2EwMzYtZTFkMC00MTg4LWJmZTAtNDIwYTQwYzEwOGQyb2NsYWltX2dlbmVyYXRvcng2QWRvYmVfSWxsdXN0cmF0b3IvMjguMSBhZG9iZV9jMnBhLzAuNy42IGMycGEtcnMvMC4yNS4ydGNsYWltX2dlbmVyYXRvcl9pbmZvgb9kbmFtZXFBZG9iZSBJbGx1c3RyYXRvcmd2ZXJzaW9uZDI4LjH/aXNpZ25hdHVyZXgZc2VsZiNqdW1iZj1jMnBhLnNpZ25hdHVyZWphc3NlcnRpb25zgqJjdXJseCdzZWxmI2p1bWJmPWMycGEuYXNzZXJ0aW9ucy9jMnBhLmFjdGlvbnNkaGFzaFgg66xm4WqDn3xgnOk59f7WI0GCp10rxJISEEb0ImTQK8GiY3VybHgpc2VsZiNqdW1iZj1jMnBhLmFzc2VydGlvbnMvYzJwYS5oYXNoLmRhdGFkaGFzaFggOzsV2nLgdMfCPSegf9fJiODk/oiwq0LjqtfC2qIpmuBjYWxnZnNoYTI1NgAAKEBqdW1iAAAAKGp1bWRjMmNzABEAEIAAAKoAOJtxA2MycGEuc2lnbmF0dXJlAAAAKBBjYm9y0oREoQE4JKNmc2lnVHN0oWl0c3RUb2tlbnOBoWN2YWxZDjYwgg4yMAMCAQAwgg4pBgkqhkiG9w0BBwKggg4aMIIOFgIBAzEPMA0GCWCGSAFlAwQCAQUAMIGDBgsqhkiG9w0BCRABBKB0BHIwcAIBAQYJYIZIAYb9bAcBMDEwDQYJYIZIAWUDBAIBBQAEIIlcpnBlCV/L3FaZbPNrcB0TZdJORyWsRCfE2cnzxEoiAhEAtx7U2L/GTyqag7fJPOf9SBgPMjAyNDAxMDQyMzM5MDBaAgkAsJguSTwElN6gggu9MIIFBzCCAu+gAwIBAgIQBR6ekdcekQq75D1c7dDd2TANBgkqhkiG9w0BAQsFADBjMQswCQYDVQQGEwJVUzEXMBUGA1UEChMORGlnaUNlcnQsIEluYy4xOzA5BgNVBAMTMkRpZ2lDZXJ0IFRydXN0ZWQgRzQgUlNBNDA5NiBTSEEyNTYgVGltZVN0YW1waW5nIENBMB4XDTIzMDkwODAwMDAwMFoXDTM0MTIwNzIzNTk1OVowWDELMAkGA1UEBhMCVVMxFzAVBgNVBAoTDkRpZ2lDZXJ0LCBJbmMuMTAwLgYDVQQDEydEaWdpQ2VydCBBZG9iZSBBQVRMIFRpbWVzdGFtcCBSZXNwb25kZXIwWTATBgcqhkjOPQIBBggqhkjOPQMBBwNCAARNLK5R+QP/tefzBZdWrDYfEPE7mzrBFX7tKpSaxdLJo7cC9SHh2fwAeyefbtU66YaNQQzfOZX02N9KzQbH0/pso4IBizCCAYcwDgYDVR0PAQH/BAQDAgeAMAwGA1UdEwEB/wQCMAAwFgYDVR0lAQH/BAwwCgYIKwYBBQUHAwgwIAYDVR0gBBkwFzAIBgZngQwBBAIwCwYJYIZIAYb9bAcBMB8GA1UdIwQYMBaAFLoW2W1NhS9zKXaaL3WMaiCPnshvMB0GA1UdDgQWBBSwNapWwyGpi87TuLyLFiVXne804TBaBgNVHR8EUzBRME+gTaBLhklodHRwOi8vY3JsMy5kaWdpY2VydC5jb20vRGlnaUNlcnRUcnVzdGVkRzRSU0E0MDk2U0hBMjU2VGltZVN0YW1waW5nQ0EuY3JsMIGQBggrBgEFBQcBAQSBgzCBgDAkBggrBgEFBQcwAYYYaHR0cDovL29jc3AuZGlnaWNlcnQuY29tMFgGCCsGAQUFBzAChkxodHRwOi8vY2FjZXJ0cy5kaWdpY2VydC5jb20vRGlnaUNlcnRUcnVzdGVkRzRSU0E0MDk2U0hBMjU2VGltZVN0YW1waW5nQ0EuY3J0MA0GCSqGSIb3DQEBCwUAA4ICAQB4K4xCx4QQhFiUgskV+5bC9AvSyYG19a8lWMkjUcR5DEdi6guz0GUSYAzUfpCaKfD+b9gc6f4zK88OFOKWOq2L9yPB6RZSWuLgcFEyFIB1qYvF8XdSRBF/eDzjg4ux8knpF+tANOeQaMxW+xhlWsW9C63kE0V55K+oIDzVD1/RoftknDsZU3UEC4GW5HWL8aNwKenMva4mYo0cTmaojslksTFIYCsXis8KxVul23tGsDYTlF2cyMXOIsaSs1kiLaTyd9GYgUJ+PVNwA2E57IWzfWZEwNaR3/zaL9mVL73XZGfFGL8KPbwby0w755gAZ0TASml2ALN2Qr8PQpAzzlk3lCTBUQLZlMedqIWgN5w/GwielH6UNqRXznUocKW+hir9IPgYHHSBtixzydFH5q/l5qYGYKvxyIHtIY3AgA6Yw4Kts+AdC+MbQANTPDK1MdNocW+9dOJxSqjLr+cyU0Jd7IMKl1Mj/vcx0D/cv2eRcfwEFqzlwluenVez+HBQSZfMx6op5YZDkrWdZttvvR5avngtISdpZBdS7s0XSSW/+dS16DykZ6KRQ54Ol6aA+3husOGKQMffj9NCblKAbGEq3bLhYslskEBgQJ4yOvYIG0i3FvoScrbop2sWsFZSLSZEtnleWeF7MT4O3/NrkZHbTdIUx3iPdwjdzlnkXm5yuzCCBq4wggSWoAMCAQICEAc2N7ckVHzYR6z9KGYqXlswDQYJKoZIhvcNAQELBQAwYjELMAkGA1UEBhMCVVMxFTATBgNVBAoTDERpZ2lDZXJ0IEluYzEZMBcGA1UECxMQd3d3LmRpZ2ljZXJ0LmNvbTEhMB8GA1UEAxMYRGlnaUNlcnQgVHJ1c3RlZCBSb290IEc0MB4XDTIyMDMyMzAwMDAwMFoXDTM3MDMyMjIzNTk1OVowYzELMAkGA1UEBhMCVVMxFzAVBgNVBAoTDkRpZ2lDZXJ0LCBJbmMuMTswOQYDVQQDEzJEaWdpQ2VydCBUcnVzdGVkIEc0IFJTQTQwOTYgU0hBMjU2IFRpbWVTdGFtcGluZyBDQTCCAiIwDQYJKoZIhvcNAQEBBQADggIPADCCAgoCggIBAMaGNQZJs8E9cklRVcclA8TykTepl1Gh1tKD0Z5Mom2gsMyD+Vr2EaFEFUJfpIjzaPp985yJC3+dH54PMx9QEwsmc5Zt+FeoAn39Q7SE2hHxc7Gz7iuAhIoiGN/r2j3EF3+rGSs+QtxnjupRPfDWVtTnKC3r07G1decfBmWNlCnT2exp39mQh0YAe9tEQYncfGpXevA3eZ9drMvohGS0UvJ2R/dhgxndX7RUCyFobjchu0CsX7LeSn3O9TkSZ+8OpWNs5KbFHc02DVzV5huowWR0QKfAcsW6Th+xtVhNef7Xj3OTrCw54qVI1vCwMROpVymWJy71h6aPTnYVVSZwmCZ/oBpHIEPjQ2OAe3VuJyWQmDo4EbP29p7mO1vsgd4iFNmCKseSv6De4z6ic/rnH1pslPJSlRErWHRAKKtzQ87fSqEcazjFKfPKqpZzQmiftkaznTqj1QPgv/CiPMpC3BhIfxQ0z9JMq++bPf4OuGQq+nUoJEHtQr8FnGZJUlD0UfM2SU2LINIsVzV5K6jzRWC8I41Y99xh3pP+OcD5sjClTNfpmEpYPtMDiP6zj9NeS3YSUZPJjAw7W4oiqMEmCPkUEBIDfV8ju2TjY+Cm4T72wnSyPx4JduyrXUZ14mCjWAkBKAAOhFTuzuldyF4wEr1GnrXTdrnSDmuZDNIztM2xAgMBAAGjggFdMIIBWTASBgNVHRMBAf8ECDAGAQH/AgEAMB0GA1UdDgQWBBS6FtltTYUvcyl2mi91jGogj57IbzAfBgNVHSMEGDAWgBTs1+OC0nFdZEzfLmc/57qYrhwPTzAOBgNVHQ8BAf8EBAMCAYYwEwYDVR0lBAwwCgYIKwYBBQUHAwgwdwYIKwYBBQUHAQEEazBpMCQGCCsGAQUFBzABhhhodHRwOi8vb2NzcC5kaWdpY2VydC5jb20wQQYIKwYBBQUHMAKGNWh0dHA6Ly9jYWNlcnRzLmRpZ2ljZXJ0LmNvbS9EaWdpQ2VydFRydXN0ZWRSb290RzQuY3J0MEMGA1UdHwQ8MDowOKA2oDSGMmh0dHA6Ly9jcmwzLmRpZ2ljZXJ0LmNvbS9EaWdpQ2VydFRydXN0ZWRSb290RzQuY3JsMCAGA1UdIAQZMBcwCAYGZ4EMAQQCMAsGCWCGSAGG/WwHATANBgkqhkiG9w0BAQsFAAOCAgEAfVmOwJO2b5ipRCIBfmbW2CFC4bAYLhBNE88wU86/GPvHUF3iSyn7cIoNqilp/GnBzx0H6T5gyNgL5Vxb122H+oQgJTQxZ822EpZvxFBMYh0MCIKoFr2pVs8Vc40BIiXOlWk/R3f7cnQU1/+rT4osequFzUNf7WC2qk+RZp4snuCKrOX9jLxkJodskr2dfNBwCnzvqLx1T7pa96kQsl3p/yhUifDVinF2ZdrM8HKjI/rAJ4JErpknG6skHibBt94q6/aesXmZgaNWhqsKRcnfxI2g55j7+6adcq/Ex8HBanHZxhOACcS2n82HhyS7T6NJuXdmkfFynOlLAlKnN36TU6w7HQhJD5TNOXrd/yVjmScsPT9rp/Fmw0HNT7ZAmyEhQNC3EyTN3B14OuSereU0cZLXJmvkOHOrpgFPvT87eK1MrfvElXvtCl8zOYdBeHo46Zzh3SP9HSjTx/no8Zhf+yvYfvJGnXUsHicsJttvFXseGYs2uJPU5vIXmVnKcPA3v5gA3yAWTyf7YGcWoWa63VXAOimGsJigK+2VQbc61RWYMbRiCQ8KvYHZE/6/pNHzV9m8BPqC3jLfBInwAM1dwvnQI38AC+R2AibZ8GV2QqYphwlHK+Z/GqSFD/yYlvZVVCsfgPrA8g4r5db7qS9EFUrnEw4d2zc4GqEr9u3WfPwxggG3MIIBswIBATB3MGMxCzAJBgNVBAYTAlVTMRcwFQYDVQQKEw5EaWdpQ2VydCwgSW5jLjE7MDkGA1UEAxMyRGlnaUNlcnQgVHJ1c3RlZCBHNCBSU0E0MDk2IFNIQTI1NiBUaW1lU3RhbXBpbmcgQ0ECEAUenpHXHpEKu+Q9XO3Q3dkwDQYJYIZIAWUDBAIBBQCggdEwGgYJKoZIhvcNAQkDMQ0GCyqGSIb3DQEJEAEEMBwGCSqGSIb3DQEJBTEPFw0yNDAxMDQyMzM5MDBaMCsGCyqGSIb3DQEJEAIMMRwwGjAYMBYEFNkauTP+F63pgh6mE/WkOnFOPn59MC8GCSqGSIb3DQEJBDEiBCBilVu0QNEm9HURJcoEcrj1EkwNI3juS0hWGUjYGDKIZzA3BgsqhkiG9w0BCRACLzEoMCYwJDAiBCCC2vGUlXs2hAJFj9UnAGn+YscUVvqeC4ar+CfoUyAn2TAKBggqhkjOPQQDAgRGMEQCIDF6228V7kfwzNUDTo84KtBr/ziAuYmUZpwUbMRvJ8ETAiAEULAWvClk+HtXjSrc6pX174vrvvc8QJ73ABQxvVmrh2d4NWNoYWluglkGMzCCBi8wggQXoAMCAQICEBtbCzvasORd8vMNnlTR2tIwDQYJKoZIhvcNAQELBQAwdTELMAkGA1UEBhMCVVMxIzAhBgNVBAoTGkFkb2JlIFN5c3RlbXMgSW5jb3Jwb3JhdGVkMR0wGwYDVQQLExRBZG9iZSBUcnVzdCBTZXJ2aWNlczEiMCAGA1UEAxMZQWRvYmUgUHJvZHVjdCBTZXJ2aWNlcyBHMzAeFw0yMzAyMDEwMDAwMDBaFw0yNDAyMDEyMzU5NTlaMIGhMREwDwYDVQQDDAhjYWktcHJvZDEcMBoGA1UECwwTQ29udGVudCBDcmVkZW50aWFsczETMBEGA1UECgwKQWRvYmUgSW5jLjERMA8GA1UEBwwIU2FuIEpvc2UxEzARBgNVBAgMCkNhbGlmb3JuaWExCzAJBgNVBAYTAlVTMSQwIgYJKoZIhvcNAQkBFhVncnAtY2FpLW9wc0BhZG9iZS5jb20wggEiMA0GCSqGSIb3DQEBAQUAA4IBDwAwggEKAoIBAQDv0wCnfYY9lkHDsykrTG7FYlnYHBcyualuD5u9ULjzv+FsTWOLg8Nhrz9RTxI9EeBbu3Wm7f4vqPsQYfxkEp0wIa6DVmEOZhbAeRfbhybWQ/D4Wvvck4mEZR+QZmTpIn7HX61gbtMFHlJUxkYBctIoAt9TBAFbz9d5Ig2WG0bsH39b6/8USXnIIk4FB6dtBRT1xeEwSDtwOd1YBpXXNBJmRWHXNJZZ85of2tBTesg/kMvTrOJJxYDZ97U416wcvbVomlees+NXUY3/ZB4xH+NsZils7m1bL2v2hSnHiLoqZeUKklbHUmT4ZpjrZCdtuIsWm5j2PPXKr7HKUuCbZSXBAgMBAAWjggGMMIIBiDAMBgNVHRMBAf8EAjAAMA4GA1UdDwEB/wQEAwIHgDAeBgNVHSUEFzAVBgkqhkiG9y8BAQwGCCsGAQUFBwMEMIGOBgNVHSAEgYYwgYMwgYAGCSqGSIb3LwECAzBzMHEGCCsGAQUFBwICMGUMY1lvdSBhcmUgbm90IHBlcm1pdHRlZCB0byB1c2UgdGhpcyBMaWNlbnNlIENlcnRpZmljYXRlIGV4Y2VwdCBhcyBwZXJtaXR0ZWQgYnkgdGhlIGxpY2Vuc2UgYWdyZWVtZW50LjBdBgNVHR8EVjBUMFKgUKBOhkxodHRwOi8vcGtpLWNybC5zeW1hdXRoLmNvbS9jYV83YTVjM2EwYzczMTE3NDA2YWRkMTkzMTJiYzFiYzIzZi9MYXRlc3RDUkwuY3JsMDcGCCsGAQUFBwEBBCswKTAnBggrBgEFBQcwAYYbaHR0cDovL3BraS1vY3NwLnN5bWF1dGguY29tMB8GA1UdIwQYMBaAFFcpejJNzP7kNU7AHyRzznNTq99qMA0GCSqGSIb3DQEBCwUAA4ICAQBXjlGa3yAK/Gijn6n/JNU9FZm72MP6vc5czrWe9y0T+EawuRvhpD5Edi1TnXkrpe8sMkgSjTGdbY+yGhq8zlCWQeXN1/aWo3L9Xr1uNxY/oVpLn0uWWfnfJ7yR9gKl/yoMfhjydT4t1fXHi/MhfhrWSVRHqX2U31UFGz/e298P2kv+vqhzpIUo1bj+jibtoPLMMQcCOTtKiJOTh4o3VSZpwQDERCzo91NkF+LnZjwYl6fE5USIkg/oCoomXxSPpowybDrcRJ9ilbtJcER48/LGgwzv/c7OYdron4PnEXm1FkOaVj+QRf7OwiNTizonhIzLR5Vfp0QHOWv/bPzvCjPQd+Xr0Q4032WlSxQwostNTAPtoVAU4OCwVH3Ech38emJ00/6fkDCdr7MN8/4n2LSNrMUvaBEZdmLqDCBnO02dbFrmpg3pTc0FqRQ4GL/88pjRNSMy5tU9SoQnSCGYqIsjfL8AzgPEGiXXRgABYc1uXecf4/eayb3K2MPs7hnWTbUKpHHJIwxpdN3vTGdZNWpz9Oxfuo3eELQlkTvACHgqkaXi/FAanHe5PChn6fr1/4cNF8goD0buPApgS3zzwqjRhxrH8ISwPfJn8JqzurMaLDMnnc18tHzUiMtX73jf6oXh7voCxX/T4D3nFPlxU3om2cpcLQ1Wd4026x18rlSGR1kGpTCCBqEwggSJoAMCAQICEAyotlR7iebSBol1zYubieIwDQYJKoZIhvcNAQELBQAwbDELMAkGA1UEBhMCVVMxIzAhBgNVBAoTGkFkb2JlIFN5c3RlbXMgSW5jb3Jwb3JhdGVkMR0wGwYDVQQLExRBZG9iZSBUcnVzdCBTZXJ2aWNlczEZMBcGA1UEAxMQQWRvYmUgUm9vdCBDQSBHMjAeFw0xNjExMjkwMDAwMDBaFw00MTExMjgyMzU5NTlaMHUxCzAJBgNVBAYTAlVTMSMwIQYDVQQKExpBZG9iZSBTeXN0ZW1zIEluY29ycG9yYXRlZDEdMBsGA1UECxMUQWRvYmUgVHJ1c3QgU2VydmljZXMxIjAgBgNVBAMTGUFkb2JlIFByb2R1Y3QgU2VydmljZXMgRzMwggIiMA0GCSqGSIb3DQEBAQUAA4ICDwAwggIKAoICAQC3Hy69vQmzXEhs/gyDrmwB6lF4JaSAPomnsbKIZNr2iXaB+fkd85X8eJiNmI7P5O4cVT4Nc1p3zrESqBV4ZUyW8gcZ78QdwoHG8QNd2VNcHnMgSR+XT9Iafsnq9Nfww3Jt9KL3l5ANQ5n1+MJqr48EWNLll942bOL/JH4ywDSMoqhZqtJEIUUUGlQVBZ8CAvJc7LE6ddA5C52PE2Ppa7RfQgHXf4gfXVZwpxYRZcziPiOHqEvLb0J3cShUbejFxV6cwX8QyAPa1ePHg1RtM0HX+D34xHo3DkyGnmT+Ddq00TEDGG26AL5PdINKFIQl+zaq6KJFQe1fdGE5wrWzU4mBPmzaz3EbLn+7FWlwAhorYqIMldbfHE3ydc+aTU1JW7+bG19qmvhO9IluGtTtQDeqFBj2fg6faxsfVfVPD7stN6TwoIDlkOCE4RE+Iin8m3z3eqi/VsTmsmRqBxWDRaqOHz02EJoEDxXJG3ei+UbIIp01XZQvdufm90WxOTuqqan2ZqTPX9K5VdjEh/ovr7xFc5q1dZo+Sa5y4sTVM854/tLU3klOgUKzzSXYPYS3GhBcYJHjwr9xNRHnNX99D6F0g7OijScWfvtjxh13aTv/H0ETvymah4yfDpVdh9cK5YSCPqnuOlsujFAyhYwJXOWDvZZU2EkWVLDhoPx9zp7N4QIDAQABo4IBNDCCATAwEgYDVR0TAQH/BAgwBgEB/wIBADA1BgNVHR8ELjAsMCqgKKAmhiRodHRwOi8vY3JsLmFkb2JlLmNvbS9hZG9iZXJvb3RnMi5jcmwwDgYDVR0PAQH/BAQDAgEGMBQGA1UdJQQNMAsGCSqGSIb3LwEBBzBXBgNVHSAEUDBOMEwGCSqGSIb3LwECAzA/MD0GCCsGAQUFBwIBFjFodHRwczovL3d3dy5hZG9iZS5jb20vbWlzYy9wa2kvcHJvZF9zdmNlX2Nwcy5odG1sMCQGA1UdEQQdMBukGTAXMRUwEwYDVQQDEwxTWU1DLTQwOTYtMzMwHQYDVR0OBBYEFFcpejJNzP7kNU7AHyRzznNTq99qMB8GA1UdIwQYMBaAFKYc4W1UJEyoj0hyv26pjNXk7DHUMA0GCSqGSIb3DQEBCwUAA4ICAQBxzuUHjKbcLdzI4DtlXgCSgZXrlSAkr59pOF3JfPG42qVNAGU7JcEYXJ6+WbfcGwY7WYMl+jO7IvJPb7shXFYW9bnJgxX7lLU14KExchmcLNY1ee6IhBJ2Y8PzZMRUKSd5CkURPg0PBLGjz/KR/DofHx+G4rPTCOGORYxeYrd01lci5hVxvKccvIk7MD69ZTewfZPSM+0WnsU3f0Zmd7hgbRpUyWceG0eHFpdUKK/ZFWhHjDVC28odCnN885tHncKXviItK0ZUUo/AIthFKlhEXsnq9VL9fFbgvO83ZvpUQo5y8mY3cuGnEVGXdhjNb53CfC1u4dbpYmWaN99subUzEsUaUb3loLPfVfzDOpg2y9v37kBdy/wuXr20teY7U62xj/fAgs1QSnhUtlMTfCqbefyEycKVmKIrJkJLsvgTSYKVvH4FFIwfd5WjqOC97jX98rcVAzhAI0iSkazsWOMvL6m0L4nLJapx+85GsVX8Y6AHmEP4bmCElwil6KAP+UewJFiw5rmwV2pESHAhYuZJa03B8tl0nd2QJzvJGmbeBqXqpF9ORinFM3HErK8puRokOjFH2+1asLeI2tB31W/ELdNe27Ogduq6Z6qBwCp59YX27qydDhD0WRfN64kCs25K88iGAGNW2CAfTDS+b+WYJBiIL9jXYZ4LF+BiUvfdu2NwYWRZC70AAAAAAAAAAAAAAAAAAAAAAAAAAAAAAAAAAAAAAAAAAAAAAAAAAAAAAAAAAAAAAAAAAAAAAAAAAAAAAAAAAAAAAAAAAAAAAAAAAAAAAAAAAAAAAAAAAAAAAAAAAAAAAAAAAAAAAAAAAAAAAAAAAAAAAAAAAAAAAAAAAAAAAAAAAAAAAAAAAAAAAAAAAAAAAAAAAAAAAAAAAAAAAAAAAAAAAAAAAAAAAAAAAAAAAAAAAAAAAAAAAAAAAAAAAAAAAAAAAAAAAAAAAAAAAAAAAAAAAAAAAAAAAAAAAAAAAAAAAAAAAAAAAAAAAAAAAAAAAAAAAAAAAAAAAAAAAAAAAAAAAAAAAAAAAAAAAAAAAAAAAAAAAAAAAAAAAAAAAAAAAAAAAAAAAAAAAAAAAAAAAAAAAAAAAAAAAAAAAAAAAAAAAAAAAAAAAAAAAAAAAAAAAAAAAAAAAAAAAAAAAAAAAAAAAAAAAAAAAAAAAAAAAAAAAAAAAAAAAAAAAAAAAAAAAAAAAAAAAAAAAAAAAAAAAAAAAAAAAAAAAAAAAAAAAAAAAAAAAAAAAAAAAAAAAAAAAAAAAAAAAAAAAAAAAAAAAAAAAAAAAAAAAAAAAAAAAAAAAAAAAAAAAAAAAAAAAAAAAAAAAAAAAAAAAAAAAAAAAAAAAAAAAAAAAAAAAAAAAAAAAAAAAAAAAAAAAAAAAAAAAAAAAAAAAAAAAAAAAAAAAAAAAAAAAAAAAAAAAAAAAAAAAAAAAAAAAAAAAAAAAAAAAAAAAAAAAAAAAAAAAAAAAAAAAAAAAAAAAAAAAAAAAAAAAAAAAAAAAAAAAAAAAAAAAAAAAAAAAAAAAAAAAAAAAAAAAAAAAAAAAAAAAAAAAAAAAAAAAAAAAAAAAAAAAAAAAAAAAAAAAAAAAAAAAAAAAAAAAAAAAAAAAAAAAAAAAAAAAAAAAAAAAAAAAAAAAAAAAAAAAAAAAAAAAAAAAAAAAAAAAAAAAAAAAAAAAAAAAAAAAAAAAAAAAAAAAAAAAAAAAAAAAAAAAAAAAAAAAAAAAAAAAAAAAAAAAAAAAAAAAAAAAAAAAAAAAAAAAAAAAAAAAAAAAAAAAAAAAAAAAAAAAAAAAAAAAAAAAAAAAAAAAAAAAAAAAAAAAAAAAAAAAAAAAAAAAAAAAAAAAAAAAAAAAAAAAAAAAAAAAAAAAAAAAAAAAAAAAAAAAAAAAAAAAAAAAAAAAAAAAAAAAAAAAAAAAAAAAAAAAAAAAAAAAAAAAAAAAAAAAAAAAAAAAAAAAAAAAAAAAAAAAAAAAAAAAAAAAAAAAAAAAAAAAAAAAAAAAAAAAAAAAAAAAAAAAAAAAAAAAAAAAAAAAAAAAAAAAAAAAAAAAAAAAAAAAAAAAAAAAAAAAAAAAAAAAAAAAAAAAAAAAAAAAAAAAAAAAAAAAAAAAAAAAAAAAAAAAAAAAAAAAAAAAAAAAAAAAAAAAAAAAAAAAAAAAAAAAAAAAAAAAAAAAAAAAAAAAAAAAAAAAAAAAAAAAAAAAAAAAAAAAAAAAAAAAAAAAAAAAAAAAAAAAAAAAAAAAAAAAAAAAAAAAAAAAAAAAAAAAAAAAAAAAAAAAAAAAAAAAAAAAAAAAAAAAAAAAAAAAAAAAAAAAAAAAAAAAAAAAAAAAAAAAAAAAAAAAAAAAAAAAAAAAAAAAAAAAAAAAAAAAAAAAAAAAAAAAAAAAAAAAAAAAAAAAAAAAAAAAAAAAAAAAAAAAAAAAAAAAAAAAAAAAAAAAAAAAAAAAAAAAAAAAAAAAAAAAAAAAAAAAAAAAAAAAAAAAAAAAAAAAAAAAAAAAAAAAAAAAAAAAAAAAAAAAAAAAAAAAAAAAAAAAAAAAAAAAAAAAAAAAAAAAAAAAAAAAAAAAAAAAAAAAAAAAAAAAAAAAAAAAAAAAAAAAAAAAAAAAAAAAAAAAAAAAAAAAAAAAAAAAAAAAAAAAAAAAAAAAAAAAAAAAAAAAAAAAAAAAAAAAAAAAAAAAAAAAAAAAAAAAAAAAAAAAAAAAAAAAAAAAAAAAAAAAAAAAAAAAAAAAAAAAAAAAAAAAAAAAAAAAAAAAAAAAAAAAAAAAAAAAAAAAAAAAAAAAAAAAAAAAAAAAAAAAAAAAAAAAAAAAAAAAAAAAAAAAAAAAAAAAAAAAAAAAAAAAAAAAAAAAAAAAAAAAAAAAAAAAAAAAAAAAAAAAAAAAAAAAAAAAAAAAAAAAAAAAAAAAAAAAAAAAAAAAAAAAAAAAAAAAAAAAAAAAAAAAAAAAAAAAAAAAAAAAAAAAAAAAAAAAAAAAAAAAAAAAAAAAAAAAAAAAAAAAAAAAAAAAAAAAAAAAAAAAAAAAAAAAAAAAAAAAAAAAAAAAAAAAAAAAAAAAAAAAAAAAAAAAAAAAAAAAAAAAAAAAAAAAAAAAAAAAAAAAAAAAAAAAAAAAAAAAAAAAAAAAAAAAAAAAAAAAAAAAAAAAAAAAAAAAAAAAAAAAAAAAAAAAAAAAAAAAAAAAAAAAAAAAAAAAAAAAAAAAAAAAAAAAAAAAAAAAAAAAAAAAAAAAAAAAAAAAAAAAAAAAAAAAAAAAAAAAAAAAAAAAAAAAAAAAAAAAAAAAAAAAAAAAAAAAAAAAAAAAAAAAAAAAAAAAAAAAAAAAAAAAAAAAAAAAAAAAAAAAAAAAAAAAAAAAAAAAAAAAAAAAAAAAAAAAAAAAAAAAAAAAAAAAAAAAAAAAAAAAAAAAAAAAAAAAAAAAAAAAAAAAAAAAAAAAAAAAAAAAAAAAAAAAAAAAAAAAAAAAAAAAAAAAAAAAAAAAAAAAAAAAAAAAAAAAAAAAAAAAAAAAAAAAAAAAAAAAAAAAAAAAAAAAAAAAAAAAAAAAAAAAAAAAAAAAAAAAAAAAAAAAAAAAAAAAAAAAAAAAAAAAAAAAAAAAAAAAAAAAAAAAAAAAAAAAAAAAAAAAAAAAAAAAAAAAAAAAAAAAAAAAAAAAAAAAAAAAAAAAAAAAAAAAAAAAAAAAAAAAAAAAAAAAAAAAAAAAAAAAAAAAAAAAAAAAAAAAAAAAAAAAAAAAAAAAAAAAAAAAAAAAAAAAAAAAAAAAAAAAAAAAAAAAAAAAAAAAAAAAAAAAAAAAAAAAAAAAAAAAAAAAAAAAAAAAAAAAAAAAAAAAAAAAAAAAAAAAAAAAAAAAAAAAAAAAAAAAAAAAAAAAAAAAAAAAAAAAAAAAAAAAAAAAAAAAAAAAAAAAAAAAAAAAAAAAAAAAAAAAAAAAAAAAAAAAAAAAAAAAAAAAAAAAAAAAAAAAAAAAAAAAAAAAAAAAAAAAAAAAAAAAAAAAAAAAAAAAAAAAAAAAAAAAAAAAAAAAAAAAAAAAAAAAAAAAAAAAAAAAAAAAAAAAAAAAAAAAAAAAAAAAAAAAAAAAAAAAAAAAAAAAAAAAAAAAAAAAAAAAAAAAAAAAAAAAAAAAAAAAAAAAAAAAAAAAAAAAAAAAAAAAAAAAAAAAAAAAAAAAAAAAAAAAAAAAAAAAAAAAAAAAAAAAAAAAAAAAAAAAAAAAAAAAAAAAAAAAAAAAAAAAAAAAAAAAAAAAAAAAAAAAAAAAAAAAAAAAAAAAAAAAAAAAAAAAAAAAAAAAAAAAAAAAAAAAAAAAAAAAAAAAAAAAAAAAAAAAAAAAAAAAAAAAAAAAAAAAAAAAAAAAAAAAAAAAAAAAAAAAAAAAAAAAAAAAAAAAAAAAAAAAAAAAAAAAAAAAAAAAAAAAAAAAAAAAAAAAAAAAAAAAAAAAAAAAAAAAAAAAAAAAAAAAAAAAAAAAAAAAAAAAAAAAAAAAAAAAAAAAAAAAAAAAAAAAAAAAAAAAAAAAAAAAAAAAAAAAAAAAAAAAAAAAAAAAAAAAAAAAAAAAAAAAAAAAAAAAAAAAAAAAAAAAAAAAAAAAAAAAAAAAAAAAAAAAAAAAAAAAAAAAAAAAAAAAAAAAAAAAAAAAAAAAAAAAAAAAAAAAAAAAAAAAAAAAAAAAAAAAAAAAAAAAAAAAAAAAAAAAAAAAAAAAAAAAPZZAQBSd3+6jkZ9WHCY/wlpTDahuO5eDnu897x5+7VXJ8C16BJc16vgaHjzcDAo7byxjDG/x5Sw9hM3L7OLy1IHpEnFNHQq1bOhf/AJqa4q6ADp7FDYHvz/toxJGCb+9d/TTg6c1Jwtz9y3W9Rxr9kDkFOSjjO7mN9mwRJiOrtGcJJxRUykadXhbExZS0mUXSlhqI0CdzhZBlWUzogIACEckCT7oLASetDRcEVtbvF6Avj487KANW0u2nrJAEd1RpbkDl9k/UJwzDeMmGhZTzR+Ln6evTF/3lacYe8QidaAlvpLmcthNXdEZRKfz9qZPDHdmGbNjZXMnzPrQLqrjZZ0xk7v</c2pa:manifest></metadata><defs><style>.cls-1{letter-spacing:.04em;}.cls-2{letter-spacing:.03em;}.cls-3{fill-rule:evenodd;}.cls-3,.cls-4{fill:#f59b2e;}.cls-3,.cls-4,.cls-5,.cls-6{stroke-width:0px;}.cls-7{letter-spacing:0em;}.cls-5{fill:#1c818d;}.cls-8{font-family:Gilroy-Bold, Gilroy;font-size:215.41px;font-weight:700;}.cls-8,.cls-9{fill:#1d1d1b;}.cls-10{letter-spacing:-.02em;}.cls-11{letter-spacing:-.01em;}.cls-12{letter-spacing:.03em;}.cls-9{font-family:Livvic-Medium, Livvic;font-size:63.02px;font-weight:500;}.cls-13{letter-spacing:-.01em;}.cls-6{fill:#a61644;}</style></defs><text class="cls-8" transform="translate(463.73 315.92)"><tspan class="cls-13" x="0" y="0">c</tspan><tspan x="112.88" y="0">a</tspan><tspan class="cls-10" x="247.72" y="0">r</tspan><tspan class="cls-7" x="320.32" y="0">o</tspan><tspan class="cls-11" x="448.27" y="0">c</tspan><tspan class="cls-7" x="561.15" y="0">a</tspan></text><path class="cls-3" d="M407.65,249.62c-9.27-58.12-59.64-77.39-61.29-78.11-3.03-1.32-6.38-3.86-8.15-10.4-1.07-3.95-1.26-7.34-3.6-10.09-.21-.47,18.21,5,30.02,12.68-11.81-13.89-32.01-21.13-35.67-22.36,1.42.49,3.61-2.72,7.87-5.98,5.75-4.4,14.76-.85,19.1,1.71,20.54,12.15,26.67,22.34,30.83,27.44,22.07,27.03,26.83,62.77,20.89,85.09Z"/><path class="cls-5" d="M391.91,346.06c-6.24-5.23-10.7-10.55-23.98-.1-5.34,4.2-12.3,8.22-12.3,8.22,6.5-.54,7.76,1.65,12.06,7.55,3.78,4.9,10.12,6.69,10.12,6.69,0,0-1.83,5.6,2.68,14.36,4.72,7.48,2.39,9.71,2.39,9.71,0,0,4.41-4.81,9.64-10.41,10.56-11.31,13.55-20.13,5.37-30.05,7.05-6.78,11.92-13.78,14.81-20.79.73-1.76,14.24-32.87-3.46-32.45,0,0-6.26-.21-10.11,7.22-.11.2-.21.41-.21.41,0,0,8.87,2.81,5.82,16.65-2.28,9.6-7.22,17.02-12.8,23.03l-.03-.03Z"/><path class="cls-5" d="M359.68,365.03c-4.6-7.03-13.86-5.38-17.18-4.17-6.32,2.61-12.01,4.42-18.99,5.76-46.81,8.94-92.26-15.41-111.92-56.46-10.07,11.21-26.79,16.32-41.38,13.07,23.71,53.72,82.06,86,142.2,74.52l.55-.09c34.48-7.17,54.47-26.15,54.47-26.15,0,0-4.02-.77-7.75-6.47Z"/><path class="cls-5" d="M371.42,379.15c-17,13.82-36.48,23.49-59.26,27.71-30.68,5.68-60.9.82-86.83-12.06-1.65,13.97-10.63,25.77-23.07,31.14,24.47,10.35,93.71,32.01,161.36-17.41,1.07-.78,4.92-3.64,5.28-3.96,5.3-4.74,8.1-9.44,5.3-16.24-.97-2.36-3.55-5.84-2.79-9.17Z"/><path class="cls-5" d="M372.44,378.85s-.02.07-.02.11c.02-.02.04-.04.07-.05l-.04-.05Z"/><path class="cls-6" d="M151.59,297.76c-1.94-10.15-2.7-20.25-2.39-30.17-13.12,8.46-31.48,9.42-44.87,1.94l-.33,4.68s-3.4,66.66,48.33,117.78c.32.32.64.64.96.96,10.15,10.07,21.7,18.63,34.2,25.56l3.42,1.9c15.18-1.29,26.3-14.57,26.16-30.07-32.99-19.27-57.76-52.07-65.49-92.58Z"/><path class="cls-4" d="M292.66,113.69s-15.85-3.3-39.76-1.15l-15.32,2.55c-25.69,4.9-48.83,15.56-68.34,30.37-.53,13.02,7.84,25.01,20.52,29.1,18.74-18.62,43.04-32.04,70.93-37.36l2.49-.35s25.63-4.6,47.17-.14c1.43.3,5.65,1.25,7,1.22,2.51-.06,4.92-1.15,7.76-3.57,3.52-2.99,5.4-7.1,12.96-6.83-11.17-4.77-21.01-9.91-45.42-13.83Z"/><path class="cls-6" d="M161.02,152.13c-31.25,27.08-51.63,65.44-55.9,107.39,12.14,10.21,34.2,8.32,44.96-3.65,3.31-27.99,15.2-53.98,33.41-74.65-12.02-5.39-20.41-16.44-22.47-29.08Z"/><path class="cls-4" d="M328.64,157.12c-.97-6.52-5.89-9.91-7.85-10.6-10.62-2.54-27.75-6.75-51.34-3.33l-5.42,1.11c-11.51,2.2-22.38,5.86-32.43,10.77-.52,10.5,4.77,20.64,13.84,26.33,11.51-8.04,24.86-13.84,39.54-16.64,12.33-2.38,29-2.85,47.34,1.82-3.3-2.86-3.17-6.05-3.68-9.46Z"/><path class="cls-6" d="M238.4,186.77c-8.72-6.59-14.24-16.52-15.27-27.19-45.87,26.8-72.16,80.46-61.63,135.62,1.14,5.98,2.68,11.78,4.58,17.38,13.65,6.96,33.4,1.68,41.73-11.41-1.91-5.2-3.42-10.62-4.49-16.23-7.25-37.96,7.4-75.03,35.08-98.17Z"/><text class="cls-9" transform="translate(961.14 387.62)"><tspan class="cls-2" x="0" y="0">s</tspan><tspan class="cls-12" x="30.75" y="0">t</tspan><tspan class="cls-1" x="57.03" y="0">udio</tspan></text></svg>