<?xml version="1.0" encoding="UTF-8"?><svg id="Capa_1" xmlns="http://www.w3.org/2000/svg" viewBox="0 0 76.09 84.77"><defs><style>.cls-1{fill:none;stroke:#000;stroke-miterlimit:10;stroke-width:2px;}</style></defs><path d="M59.34,37.22c1.7-.89,2.38-3,1.5-4.71-.88-1.71-3-2.39-4.73-1.52l-5.28,2.73-5.56-6.96c-.73-.91-1.85-1.41-2.96-1.31,1.13-1.17,1.83-2.76,1.83-4.51,0-3.59-2.92-6.5-6.5-6.5s-6.5,2.92-6.5,6.5c0,1.99.9,3.77,2.31,4.96l-.86.04c-.91.11-1.76.59-2.33,1.31l-6.05,7.67c-.49.61-.76,1.38-.76,2.18v10.5c0,1.93,1.57,3.5,3.5,3.5s3.5-1.57,3.5-3.5v-9.29l1.39-1.76.43,7.05c-4.31,26.82-4.31,26.97-4.31,27.33,0,1.93,1.57,3.5,3.5,3.5,1.81,0,3.31-1.36,3.48-3.12.11-.84,1.71-10.82,3.12-19.62l.41-2.57,1.2,5.31v16.49c0,1.93,1.57,3.5,3.5,3.5s3.5-1.57,3.5-3.5v-16.87c0-.24-.03-.49-.09-.77l-2.27-10.01c-.03-.15-.08-.3-.13-.44l-.17-6.41,3.12,3.91c.67.84,1.66,1.32,2.74,1.32.56,0,1.12-.13,1.61-.39l7.83-4.04s0,0,0,0h0ZM37.65,16.43c2.48,0,4.5,2.02,4.5,4.5s-2.02,4.5-4.5,4.5-4.5-2.02-4.5-4.5,2.02-4.5,4.5-4.5ZM58.42,35.44l-7.83,4.04c-.59.31-1.43.15-1.86-.4l-4.98-6.25c-.27-.34-.73-.46-1.12-.32-.4.15-.67.54-.66.97l.26,9.58c0,.13.03.26.09.39.04.08.06.17.09.26l2.26,10c.03.13.04.24.04.34v16.87c0,.83-.67,1.5-1.5,1.5s-1.5-.66-1.5-1.5v-16.6c0-.07,0-.15-.02-.22l-1.76-7.78c-.1-.46-.51-.78-.98-.78h-1.04c-.49,0-.91.36-.99.84l-.8,4.99c-1.48,9.24-3.01,18.8-3.13,19.7-.08.77-.72,1.35-1.5,1.35-.83,0-1.5-.67-1.5-1.51.02-.33.69-4.62,4.31-27.12.01-.07.02-.15.01-.22l-.6-9.77c-.02-.41-.3-.77-.7-.89-.4-.12-.83,0-1.08.33l-3.23,4.09c-.14.18-.22.4-.22.62v9.64c0,.83-.67,1.5-1.5,1.5s-1.5-.67-1.5-1.5v-10.5c0-.34.11-.67.32-.93l6.06-7.67c.25-.31.61-.52.92-.56l9.69-.49c.48-.04.95.17,1.27.57l6.07,7.6c.3.37.82.48,1.24.26l6-3.1c.76-.38,1.65-.1,2.04.65.38.74.08,1.64-.65,2.02h0Z"/><rect class="cls-1" x="11.78" y="12.43" width="52.6" height="62.94" rx="1.81" ry="1.81"/></svg>